<?xml version="1.0" encoding="utf-8"?>
<!-- Generator: Adobe Illustrator 26.5.3, SVG Export Plug-In . SVG Version: 6.00 Build 0)  -->
<svg version="1.1" id="Layer_1" xmlns="http://www.w3.org/2000/svg" xmlns:xlink="http://www.w3.org/1999/xlink" x="0px" y="0px"
	 width="1233px" height="503px" viewBox="0 0 1233 503" style="enable-background:new 0 0 1233 503;" xml:space="preserve">
<style type="text/css">
	.st0{fill:#FFFFFF;}
	.st1{fill:none;}
	.st2{enable-background:new    ;}
	.st3{fill:#FFDD01;}
	.st4{fill:#FBAD35;}
	.st5{fill:#FBAD35;enable-background:new    ;}
	.st6{fill:#FFDD01;enable-background:new    ;}
	.st7{fill:none;stroke:#FBAD35;stroke-width:4;stroke-miterlimit:10;}
	.st8{fill:#EFF0F5;}
	.st9{fill:#18375E;}
	.st10{fill:#0F0F0F;}
	.st11{fill:#F2DCDB;}
</style>
<rect x="-15.9" y="-12.6" class="st0" width="1253.5" height="554.8"/>
<rect x="0.5" y="0.5" pointer-events="all" class="st1" width="280" height="30"/>
<g transform="translate(-0.5 -0.5)">
	<g class="st2">
		<path d="M50.7,13.8v6.6h-0.9V10h4.3v3.9H50.7z M50.7,10.6v0.9h2.6v-0.9H50.7z M53.3,13.2v-1h-2.6v1H53.3z M59.6,19.4
			c0,0.5-0.1,0.7-0.4,0.9c-0.3,0.1-0.8,0.2-1.6,0.2c0-0.2-0.1-0.6-0.2-0.8c0,0.1-0.1,0.1-0.1,0.2c-1.2-0.3-2.1-0.9-2.6-1.8
			c-0.3,0.7-1.1,1.3-2.7,1.8c-0.1-0.2-0.3-0.4-0.5-0.6c1.7-0.5,2.4-1.2,2.6-1.8h-2.5v-0.7h2.6v-0.1v-0.8h-2.4v-0.7h1.3
			c-0.1-0.3-0.3-0.7-0.5-1l0.7-0.2c0.3,0.4,0.6,0.9,0.6,1.2h1.6c0.2-0.4,0.5-0.9,0.6-1.2l0.8,0.3c-0.2,0.3-0.4,0.7-0.6,1h1.4v0.7H55
			v0.8v0.1h2.8v0.7h-2.6c0.5,0.9,1.4,1.4,2.6,1.7c-0.1,0.1-0.2,0.3-0.3,0.4c0.5,0,1,0,1.1,0c0.2,0,0.2-0.1,0.2-0.2v-5.5h-3.6V10h4.4
			V19.4z M56,10.6v0.9h2.7v-0.9H56z M58.8,13.2v-1H56v1H58.8z"/>
		<path d="M71.4,12.5c-0.3,1.9-0.8,3.5-1.5,4.8c0.6,1,1.4,1.8,2.3,2.4c-0.2,0.2-0.5,0.5-0.6,0.8c-0.9-0.5-1.7-1.3-2.2-2.3
			c-0.7,0.9-1.6,1.7-2.8,2.3c-0.1-0.2-0.2-0.4-0.4-0.6L66,20.1c-0.4-0.3-0.9-0.6-1.4-0.9c-0.7,0.6-1.6,1-2.9,1.2
			c-0.1-0.2-0.2-0.6-0.4-0.7c1.1-0.2,1.9-0.5,2.6-0.9c-0.4-0.2-0.8-0.4-1.2-0.6l-0.2,0.3l-0.8-0.3c0.3-0.5,0.6-1.1,0.9-1.7h-1.4
			v-0.7h1.7c0.2-0.4,0.3-0.7,0.5-1l0.3,0.1v-1.7c-0.6,0.7-1.4,1.4-2.1,1.8c-0.1-0.2-0.3-0.5-0.5-0.7c0.9-0.4,1.8-1.1,2.4-1.9h-2.2
			v-0.7h2.5V9.5h0.8v2.2H67v0.7h-2.4v0.1c0.5,0.3,1.8,1.1,2.1,1.4l-0.5,0.6c-0.3-0.3-1.1-0.9-1.6-1.3v1.8h-0.5l0.2,0
			c-0.1,0.3-0.3,0.6-0.4,0.8h3.2v0.7h-1c-0.2,0.8-0.4,1.5-0.9,2c0.5,0.3,1,0.6,1.4,0.9c1-0.6,1.8-1.3,2.4-2.2
			c-0.5-1-0.8-2.1-1.1-3.3c-0.3,0.6-0.6,1.1-0.9,1.5c-0.1-0.2-0.5-0.5-0.7-0.6c1-1.3,1.6-3.3,2-5.4l0.9,0.1
			c-0.1,0.7-0.3,1.4-0.4,2.1h3.5v0.8H71.4z M62.5,11.6c-0.1-0.4-0.4-1.1-0.7-1.6l0.7-0.3c0.3,0.5,0.7,1.1,0.8,1.5L62.5,11.6z
			 M63.5,16.6c-0.2,0.3-0.3,0.7-0.5,1c0.5,0.2,1,0.4,1.4,0.6c0.4-0.4,0.6-1,0.8-1.6H63.5z M66.7,10c-0.3,0.6-0.8,1.2-1.1,1.5
			l-0.6-0.3c0.3-0.4,0.7-1.1,0.9-1.6L66.7,10z M68.4,12.5c0.2,1.4,0.6,2.7,1,3.8c0.5-1.1,0.8-2.3,1.1-3.8L68.4,12.5L68.4,12.5z"/>
		<path d="M73.9,12.1c0.7,0.1,1.1,0.1,1.5,0.1c0.3,0,0.6,0,0.9,0c0-0.6,0-1.2,0-1.4c0-0.2,0-0.6-0.1-0.9h1.1c0,0.2-0.1,0.6-0.1,0.8
			c0,0.3,0,0.8,0,1.3c0.9-0.1,1.8-0.3,2.5-0.5l0,0.9c-0.7,0.2-1.6,0.3-2.5,0.4c0,0.6,0,1.1,0,1.6V15c0.9-0.3,1.8-0.4,2.6-0.4
			c1.8,0,3,0.9,3,2.4c0,1.5-0.9,2.4-2.6,2.8c-0.5,0.1-1.1,0.1-1.5,0.2l-0.3-1c0.4,0,1,0,1.4-0.1c1.1-0.2,2-0.8,2-1.9
			c0-1-0.9-1.6-2.1-1.6c-0.9,0-1.8,0.2-2.6,0.5c0,1,0,2.1,0,2.6c0,1.1-0.4,1.5-1.1,1.5c-0.9,0-2.5-0.9-2.5-2c0-1,1.2-2,2.6-2.6v-0.7
			c0-0.5,0-1,0-1.6c-0.3,0-0.6,0-0.9,0c-0.7,0-1.1,0-1.5-0.1L73.9,12.1z M76.4,18.3c0-0.4,0-1.2,0-2.1c-1,0.5-1.7,1.2-1.7,1.7
			c0,0.6,0.8,1,1.3,1C76.2,18.9,76.4,18.7,76.4,18.3z M81.1,11.2c0.9,0.5,2.2,1.3,2.7,1.8l-0.5,0.8c-0.6-0.6-1.9-1.4-2.7-1.8
			L81.1,11.2z"/>
		<path d="M90,10.1c0,0.3-0.1,0.8-0.1,1.2c0,0.3,0,0.8,0,1.2c0.9,0,2.5-0.1,3.6-0.2l0,0.9c-1.1,0.1-2.6,0.2-3.6,0.2v0.1
			c0,0.8,0.1,2,0.1,3c1.5,0.4,2.9,1.3,3.7,2l-0.6,0.9c-0.8-0.8-1.9-1.5-3.1-2c0,0.3,0,0.6,0,0.8c0,1-0.6,1.8-2.2,1.8
			c-1.7,0-2.9-0.5-2.9-1.9c0-1.1,0.9-2,3-2c0.3,0,0.7,0,1,0.1c0-1-0.1-2.1-0.1-2.8c0-0.7,0-1.7,0-2.2c0-0.4,0-1-0.1-1.2H90z
			 M89.1,17.9c0-0.2,0-0.5,0-0.8c-0.4-0.1-0.8-0.1-1.2-0.1c-1.2,0-1.9,0.4-1.9,1.1c0,0.7,0.7,1,1.8,1C88.7,19.2,89.1,18.7,89.1,17.9
			z"/>
		<path d="M103.5,14.4c0.3,3-0.7,5.9-4,5.9c-1.9,0-3.3-1.1-3.3-3c0-2.2,1.2-4,2.2-5.1c-0.6,0.1-1.6,0.2-2,0.3
			c-0.2,0-0.4,0.1-0.7,0.1l-0.1-1c0.2,0,0.4,0,0.6,0c1.1,0,3.1-0.3,3.8-0.6l0.3,0.8c-0.2,0-0.5,0.1-0.6,0.2
			c-0.8,0.6-2.6,2.7-2.6,5.1c0,1.7,1.1,2.3,2.3,2.3c2.8,0,3.8-2.9,3-7.3c-0.1-0.3-0.2-0.6-0.3-0.9l0.9-0.3c0.3,1.5,0.8,3.5,2.5,5.1
			l-0.6,0.9C104.5,16.1,104,15.3,103.5,14.4z M104.3,10.1c0.2,0.4,0.6,1.2,0.8,1.7l-0.6,0.2c-0.2-0.5-0.5-1.3-0.8-1.7L104.3,10.1z
			 M105.5,9.7c0.3,0.4,0.6,1.2,0.9,1.7l-0.6,0.2c-0.2-0.5-0.5-1.2-0.8-1.7L105.5,9.7z"/>
		<path d="M110.9,10.1h1.1c0,0.3-0.1,0.7-0.1,1c0,0.4,0,0.8-0.1,1.2h2.9c0.3,0,0.6,0,0.8-0.1l0.7,0.3c0,0.2-0.1,0.4-0.1,0.6
			c0,1.2-0.2,4.6-0.7,5.8c-0.2,0.5-0.6,0.7-1.3,0.7c-0.6,0-1.3,0-1.9-0.1l-0.1-1c0.6,0.1,1.3,0.1,1.8,0.1c0.3,0,0.6-0.1,0.7-0.4
			c0.5-0.9,0.6-3.9,0.6-5.1h-3.4c-0.4,3.4-1.7,5.3-3.7,6.6l-0.9-0.7c0.4-0.2,0.9-0.5,1.2-0.9c1.2-1.1,2.1-2.6,2.4-5h-2
			c-0.5,0-1,0-1.4,0v-1c0.4,0,0.9,0.1,1.4,0.1h2.1c0-0.4,0-0.8,0-1.2C111,10.8,111,10.3,110.9,10.1z"/>
		<path d="M118,13.6c0.3,0,0.7,0.1,1,0.1h7.9c0.3,0,0.6,0,0.9-0.1v1c-0.3,0-0.6,0-0.9,0h-3.3c0,1.3-0.2,2.4-0.7,3.3
			c-0.4,0.8-1.3,1.7-2.4,2.2l-0.9-0.7c0.9-0.4,1.8-1.1,2.3-1.8c0.5-0.8,0.7-1.8,0.7-3H119c-0.4,0-0.7,0-1,0V13.6z M119.4,10.6
			c0.3,0,0.7,0.1,1.1,0.1h4.9c0.3,0,0.8,0,1.1-0.1v1c-0.3,0-0.8,0-1.1,0h-4.8c-0.4,0-0.8,0-1.1,0V10.6z"/>
		<path d="M129.6,12.7v-1.1c0.4,0,0.9,0.1,1.3,0.1h5.9c0.3,0,0.7,0,0.9,0c0,0.3,0,0.6,0,0.9v6.2c0,0.4,0,1,0,1.2h-1.1
			c0-0.1,0-0.4,0-0.7h-5.9c-0.5,0-1,0-1.4,0v-1.1c0.3,0,0.8,0.1,1.3,0.1h5.9v-5.7H131C130.5,12.7,129.9,12.7,129.6,12.7z M136.6,9.6
			c0.3,0.4,0.7,1.1,1,1.6l-0.7,0.3c-0.2-0.5-0.6-1.2-0.9-1.6L136.6,9.6z M138.1,9.3c0.3,0.4,0.7,1.1,1,1.6l-0.7,0.3
			c-0.3-0.5-0.6-1.2-1-1.6L138.1,9.3z"/>
		<path d="M141.3,10.5h1.1c0,0.2,0,0.6,0,0.9v4c0,0.3,0,0.7,0,0.9h-1.1c0-0.2,0.1-0.6,0.1-0.9v-4C141.3,11.1,141.3,10.7,141.3,10.5z
			 M146.8,10.4h1.1c0,0.3,0,0.6,0,1v1.9c0,2.9-0.4,3.8-1.3,4.9c-0.8,0.9-2,1.5-2.9,1.8l-0.8-0.8c1.1-0.3,2.1-0.8,2.9-1.6
			c0.9-1,1-2,1-4.2v-1.9C146.9,11,146.8,10.7,146.8,10.4z"/>
		<path d="M150.1,16.3c0.3-0.3,0.5-0.5,0.9-0.8c0.6-0.6,1.6-1.9,2.4-2.8c0.6-0.8,1.2-0.9,2-0.1c0.7,0.7,1.8,1.8,2.5,2.5
			c0.8,0.9,2,2.2,2.9,3.1l-0.8,0.9c-0.9-1-1.9-2.3-2.7-3.1c-0.7-0.8-1.8-2-2.3-2.5c-0.5-0.5-0.7-0.4-1.1,0.1c-0.6,0.7-1.6,2-2.1,2.7
			c-0.2,0.3-0.5,0.7-0.7,0.9L150.1,16.3z M157.7,11.4c0.3,0.4,0.9,1.3,1.1,1.9l-0.7,0.3c-0.3-0.6-0.7-1.4-1.1-1.9L157.7,11.4z
			 M159.3,10.8c0.3,0.4,0.9,1.3,1.2,1.9l-0.7,0.3c-0.3-0.6-0.7-1.4-1.2-1.9L159.3,10.8z"/>
		<path d="M162.7,14.3c0.4,0,1,0.1,1.7,0.1h6.6c0.6,0,1,0,1.3-0.1v1.2c-0.2,0-0.7-0.1-1.3-0.1h-6.6c-0.7,0-1.3,0-1.7,0.1V14.3z"/>
		<path d="M181.7,11.5c-0.1,0.1-0.2,0.4-0.3,0.5c-0.4,1-1.2,2.4-2,3.5c1.3,1.1,2.7,2.6,3.5,3.6l-0.8,0.7c-0.8-1.1-2.1-2.5-3.3-3.6
			c-1.3,1.4-2.9,2.7-4.7,3.5l-0.8-0.8c1.9-0.8,3.7-2.2,4.9-3.6c0.8-0.9,1.7-2.3,2-3.3h-4.7c-0.4,0-1.1,0-1.2,0.1V11
			c0.2,0,0.9,0.1,1.2,0.1h4.6c0.4,0,0.7,0,0.9-0.1L181.7,11.5z"/>
	</g>
</g>
<rect x="854.5" y="0.5" pointer-events="all" class="st1" width="280" height="30"/>
<g transform="translate(-0.5 -0.5)">
	<g class="st2">
		<path d="M917.5,10.5c0.3,0,0.6,0,0.9,0c0.5,0,3-0.1,3.7-0.2c0.3,0,0.5-0.1,0.6-0.1l0.6,0.7c-0.2,0.1-0.5,0.3-0.6,0.4
			c-0.9,0.7-2.6,2.2-3.6,3c1.8-0.2,4-0.3,5.7-0.3v0.9c-1.2-0.1-2.3,0-3,0c-1.2,0.2-2.3,1.2-2.3,2.3c0,1.2,1,1.6,2.1,1.8
			c0.7,0.1,1.3,0.1,1.7,0l-0.2,1c-2.9,0.1-4.5-0.8-4.5-2.6c0-1,0.8-1.9,1.4-2.3c-1.3,0.1-2.9,0.3-4.3,0.5l-0.1-0.9
			c0.6-0.1,1.5-0.2,2.1-0.2c1.3-0.9,3.2-2.6,4-3.2c-0.5,0-2.6,0.1-3.2,0.2c-0.3,0-0.7,0.1-0.9,0.1L917.5,10.5z"/>
		<path d="M931.2,19c0.4,0,0.8-0.1,1-0.2c1.5-0.3,3-1.5,3-3.6c0-1.8-1.2-3.3-3.2-3.5c-0.2,1.1-0.4,2.3-0.7,3.5
			c-0.7,2.5-1.7,3.7-2.8,3.7c-1.1,0-2.1-1.2-2.1-3.2c0-2.6,2.3-4.9,5.2-4.9c2.8,0,4.6,2,4.6,4.4c0,2.5-1.7,4.2-4.5,4.6L931.2,19z
			 M930.4,15c0.3-1,0.5-2.1,0.7-3.2c-2.3,0.3-3.7,2.3-3.7,3.9c0,1.5,0.7,2.2,1.2,2.2C929.1,17.9,929.8,17.1,930.4,15z"/>
		<path d="M941.2,9.8c-0.3,0.9-0.7,1.7-1.2,2.5v8.1h-0.9v-6.7c-0.4,0.5-0.8,1-1.2,1.5c-0.1-0.2-0.3-0.6-0.5-0.8
			c1.2-1.2,2.3-2.9,3-4.8L941.2,9.8z M946.8,19.5c0.7,0,0.9-0.3,1-1.7c0.2,0.2,0.6,0.3,0.8,0.4c-0.2,1.6-0.4,2.2-1.8,2.2h-3.1
			c-1.4,0-1.8-0.3-1.8-1.6v-3.9l-1.2,0.5l-0.3-0.8l1.5-0.6v-3.2h0.9v2.8l1.8-0.7V9.5h0.9v3l1.9-0.7l0.1-0.1l0.2-0.1l0.6,0.3l0,0.2
			c0,2.2,0,3.9-0.1,4.4c-0.1,0.6-0.3,0.8-0.7,0.9c-0.3,0.1-0.9,0.1-1.2,0.1c0-0.3-0.1-0.6-0.2-0.8c0.3,0,0.8,0,0.9,0
			c0.2,0,0.3,0,0.4-0.4c0.1-0.3,0.1-1.6,0.1-3.5l-1.9,0.7v4.4h-0.9v-4.1l-1.8,0.7v4.2c0,0.7,0.2,0.8,1,0.8H946.8z"/>
		<path d="M954.8,19c0.4,0,0.8-0.1,1-0.2c1.5-0.3,3-1.5,3-3.6c0-1.8-1.2-3.3-3.2-3.5c-0.2,1.1-0.4,2.3-0.7,3.5
			c-0.7,2.5-1.7,3.7-2.8,3.7c-1.1,0-2.1-1.2-2.1-3.2c0-2.6,2.3-4.9,5.2-4.9c2.8,0,4.6,2,4.6,4.4c0,2.5-1.7,4.2-4.5,4.6L954.8,19z
			 M954,15c0.3-1,0.5-2.1,0.7-3.2c-2.3,0.3-3.7,2.3-3.7,3.9c0,1.5,0.7,2.2,1.2,2.2C952.7,17.9,953.3,17.1,954,15z"/>
		<path d="M965,16.5c-1.2,0.6-2.5,1.2-3.5,1.7l-0.3-0.9c0.5-0.2,1-0.4,1.6-0.7v-3.8h-1.4v-0.8h1.4V9.6h0.8v2.5h1.3v0.8h-1.3v3.4
			l1.2-0.6L965,16.5z M967.2,15.1c-0.2,0.3-0.3,0.6-0.5,0.8h5.2c0,0,0,0.2,0,0.4c-0.2,2.5-0.4,3.4-0.7,3.8c-0.2,0.2-0.4,0.3-0.7,0.3
			c-0.3,0-0.7,0-1.2,0c0-0.2-0.1-0.5-0.2-0.7c0.4,0,0.8,0,1,0c0.2,0,0.3,0,0.4-0.1c0.2-0.2,0.4-1,0.5-2.9H970
			c-0.5,1.4-1.4,3-2.4,3.8c-0.1-0.2-0.4-0.4-0.6-0.5c1-0.6,1.8-1.9,2.3-3.2h-1.2c-0.6,1.2-1.8,2.5-2.9,3.2c-0.1-0.2-0.4-0.4-0.6-0.6
			c1-0.5,2.1-1.6,2.7-2.7h-1.2c-0.5,0.5-1,1-1.6,1.4c-0.1-0.1-0.4-0.4-0.6-0.6c0.9-0.6,1.8-1.4,2.4-2.4h-1.7v-0.8h7.5v0.8H967.2z
			 M971.3,13.7h-5.5V9.8h5.5V13.7z M970.5,10.5h-3.8v0.9h3.8V10.5z M970.5,12.1h-3.8v1h3.8V12.1z"/>
		<path d="M974.7,15.9c0,1.5-0.2,3.3-1.1,4.5c-0.1-0.1-0.5-0.4-0.7-0.5c0.8-1.3,0.9-3.1,0.9-4.5v-3.2h4.4v3.7H974.7z M978.6,10.9
			h-5.1v-0.8h5.1V10.9z M974.7,13v2.1h2.7V13H974.7z M984.2,14.4h-1.3v6H982v-6H980c0,1.9-0.4,4.3-2,6c-0.1-0.2-0.4-0.5-0.7-0.6
			c1.7-1.8,1.8-4.2,1.8-6v-3.2l0.7,0.2c1.3-0.3,2.6-0.8,3.4-1.2l0.8,0.7c-1.1,0.5-2.6,1-4,1.3v1.9h4.3V14.4z"/>
		<path d="M987.5,14.9c0-2.3,0.9-4.2,2.4-5.7l0.7,0.4c-1.4,1.4-2.2,3.2-2.2,5.3s0.9,3.9,2.2,5.3l-0.7,0.4
			C988.4,19.2,987.5,17.3,987.5,14.9z"/>
		<path d="M992.3,11.2c0.9,0,2.7,0,4-0.2c1.1-0.2,2.5-0.4,3.1-0.7l0.6,0.8c-0.3,0.1-0.5,0.1-0.7,0.2c-0.6,0.2-1.5,0.3-2.4,0.5v2.3
			h3.3c0.3,0,0.7,0,0.9,0v1c-0.3,0-0.6,0-0.9,0h-3.3c-0.1,2.2-1,3.8-3.1,5l-0.9-0.7c1.9-0.9,2.9-2.2,3-4.4h-3.6c-0.4,0-0.8,0-1.1,0
			v-1c0.3,0,0.7,0,1.1,0h3.6v-2.2c-1.2,0.1-2.6,0.2-3.5,0.2L992.3,11.2z"/>
		<path d="M1005.1,12.2c0,0.2,0.1,0.5,0.2,0.8c0.1,0.3,0.2,0.8,0.4,1.4c1.7-0.3,3.7-0.7,4.1-0.8c0.1,0,0.3-0.1,0.5-0.1l0.6,0.4
			c-0.5,1-1.7,2.7-2.6,3.5l-0.9-0.4c0.8-0.6,1.7-1.8,2.1-2.5c-0.3,0-2,0.4-3.6,0.7c0.5,1.7,1.1,3.8,1.2,4.4c0.1,0.2,0.2,0.6,0.3,0.8
			l-1,0.3c0-0.3-0.1-0.6-0.2-0.9c-0.2-0.5-0.7-2.7-1.2-4.4c-1.1,0.2-2.1,0.4-2.4,0.5l-0.2-0.9c0.3,0,0.6-0.1,1-0.1
			c0.2,0,0.7-0.1,1.5-0.3c-0.2-0.6-0.3-1.2-0.4-1.4c-0.1-0.3-0.2-0.5-0.3-0.7L1005.1,12.2z"/>
		<path d="M1017.7,9.9c0,0.3-0.1,0.7-0.1,1.1v0.8h2c0.3,0,0.6,0,0.8-0.1l0.6,0.6c-0.2,0.2-0.5,0.5-0.7,0.7c-0.6,0.7-1.6,1.7-2.7,2.5
			c0,1,0,2.4,0,3.2c0,0.4,0,0.9,0.1,1.3h-1.1c0-0.3,0.1-0.9,0.1-1.3c0-0.7,0-1.8,0-2.6c-1.1,0.6-2.4,1.2-4.1,1.7l-0.6-0.9
			c2.3-0.5,3.8-1.3,4.9-2c1.1-0.7,2-1.6,2.4-2.2h-5c-0.4,0-1.1,0-1.5,0v-1c0.4,0,1.1,0.1,1.5,0.1h2.4v-0.8c0-0.3,0-0.8-0.1-1.1
			H1017.7z M1021.6,17.9c-1-0.8-1.8-1.2-2.9-1.8l0.6-0.7c1.1,0.6,1.8,1,2.9,1.7L1021.6,17.9z"/>
		<path d="M1023,19.2c1-0.7,1.7-1.8,2.1-3c0.3-1.1,0.4-3.5,0.4-4.8c0-0.4,0-0.6-0.1-0.9h1.1c0,0.1-0.1,0.5-0.1,0.9
			c0,1.3,0,3.9-0.4,5.1c-0.4,1.3-1.1,2.5-2.1,3.3L1023,19.2z M1029.2,19.8l-0.6-0.5c0-0.2,0.1-0.4,0.1-0.7v-7.2
			c0-0.5-0.1-0.8-0.1-0.9h1.1c0,0.1,0,0.4,0,0.9v6.9c1.1-0.5,2.6-1.6,3.5-3l0.6,0.8c-1,1.4-2.7,2.6-4.1,3.3
			C1029.4,19.6,1029.3,19.7,1029.2,19.8z"/>
		<path d="M1037.3,14.9c0,2.3-0.9,4.2-2.4,5.7l-0.7-0.4c1.4-1.4,2.2-3.2,2.2-5.3s-0.9-3.9-2.2-5.3l0.7-0.4
			C1036.3,10.7,1037.3,12.6,1037.3,14.9z"/>
		<path d="M1040.8,16.3c0.3-0.3,0.5-0.5,0.9-0.8c0.6-0.6,1.6-1.9,2.4-2.8c0.6-0.8,1.2-0.9,2-0.1c0.7,0.7,1.8,1.8,2.5,2.5
			c0.8,0.9,2,2.2,2.9,3.1l-0.8,0.9c-0.9-1-1.9-2.3-2.7-3.1c-0.7-0.8-1.8-2-2.3-2.5c-0.5-0.5-0.7-0.4-1.1,0.1c-0.6,0.7-1.6,2-2.1,2.7
			c-0.2,0.3-0.5,0.7-0.7,0.9L1040.8,16.3z M1048.5,11.4c0.3,0.4,0.9,1.3,1.1,1.9l-0.7,0.3c-0.3-0.6-0.7-1.4-1.1-1.9L1048.5,11.4z
			 M1050,10.8c0.3,0.4,0.9,1.3,1.2,1.9l-0.7,0.3c-0.3-0.6-0.7-1.4-1.2-1.9L1050,10.8z"/>
		<path d="M1053.4,14.3c0.4,0,1,0.1,1.7,0.1h6.6c0.6,0,1,0,1.3-0.1v1.2c-0.2,0-0.7-0.1-1.3-0.1h-6.6c-0.7,0-1.3,0-1.7,0.1V14.3z"/>
		<path d="M1072.5,11.5c-0.1,0.1-0.2,0.4-0.3,0.5c-0.4,1-1.2,2.4-2,3.5c1.3,1.1,2.7,2.6,3.5,3.6l-0.8,0.7c-0.8-1.1-2.1-2.5-3.3-3.6
			c-1.3,1.4-2.9,2.7-4.7,3.5l-0.8-0.8c1.9-0.8,3.7-2.2,4.9-3.6c0.8-0.9,1.7-2.3,2-3.3h-4.7c-0.4,0-1.1,0-1.2,0.1V11
			c0.2,0,0.9,0.1,1.2,0.1h4.6c0.4,0,0.7,0,0.9-0.1L1072.5,11.5z"/>
	</g>
</g>
<rect x="387.5" y="0.5" pointer-events="all" class="st1" width="280" height="30"/>
<g transform="translate(-0.5 -0.5)">
	<g class="st2">
		<path d="M482.9,16.5c-1.4,0.2-2.6,0.4-3.2,0.6c-0.5,0.1-0.8,0.1-1.1,0.2l-0.2-1c0.3,0,0.7-0.1,1.1-0.1c0.6-0.1,1.9-0.3,3.3-0.5
			c-0.2-0.8-0.3-1.7-0.5-2.4c-1.1,0.2-2.2,0.3-2.6,0.4c-0.3,0.1-0.6,0.1-1,0.2l-0.2-1.1c0.3,0,0.6,0,1-0.1c0.5,0,1.5-0.2,2.6-0.4
			c-0.1-0.6-0.2-1.1-0.3-1.3c-0.1-0.3-0.1-0.6-0.2-0.8l1.1-0.2c0,0.2,0.1,0.6,0.1,0.8c0,0.1,0.1,0.6,0.3,1.3
			c1.2-0.2,2.3-0.4,2.8-0.5c0.3-0.1,0.6-0.1,0.9-0.2l0.2,1c-0.2,0-0.6,0.1-0.9,0.1c-0.6,0.1-1.6,0.3-2.8,0.4
			c0.2,0.7,0.3,1.6,0.5,2.4c1.2-0.2,2.4-0.4,3-0.5c0.5-0.1,0.8-0.2,1.1-0.2l0.2,1c-0.3,0-0.6,0.1-1.1,0.2c-0.7,0.1-1.8,0.3-3,0.5
			c0.2,1.2,0.4,2.1,0.5,2.4c0.1,0.3,0.2,0.8,0.3,1.1l-1.1,0.2c-0.1-0.4-0.1-0.8-0.2-1.1C483.3,18.6,483.1,17.7,482.9,16.5z"/>
		<path d="M492.3,12.2c0,0.2,0.1,0.5,0.2,0.8c0.1,0.3,0.2,0.8,0.4,1.4c1.7-0.3,3.7-0.7,4.1-0.8c0.1,0,0.3-0.1,0.5-0.1l0.6,0.4
			c-0.5,1-1.7,2.7-2.6,3.5l-0.9-0.4c0.8-0.6,1.7-1.8,2.1-2.5c-0.3,0-2,0.4-3.6,0.7c0.5,1.7,1.1,3.8,1.2,4.4c0.1,0.2,0.2,0.6,0.3,0.8
			l-1,0.3c0-0.3-0.1-0.6-0.2-0.9c-0.2-0.5-0.7-2.7-1.2-4.4c-1.1,0.2-2.1,0.4-2.4,0.5l-0.2-0.9c0.3,0,0.6-0.1,1-0.1
			c0.2,0,0.7-0.1,1.5-0.3c-0.2-0.6-0.3-1.2-0.4-1.4c-0.1-0.3-0.2-0.5-0.3-0.7L492.3,12.2z"/>
		<path d="M499.6,18.7c2.1-0.3,3.7-1,4.8-1.8c1.8-1.2,3.3-2.9,4-4.4l0.6,1c-0.8,1.5-2.2,3.1-4,4.3c-1.2,0.8-2.7,1.5-4.7,1.9
			L499.6,18.7z M500.6,10.7c0.9,0.6,2.4,1.8,3.1,2.5l-0.8,0.8c-0.6-0.6-2.1-1.9-3-2.5L500.6,10.7z"/>
		<path d="M509.9,16.3c0.3-0.3,0.5-0.5,0.9-0.8c0.6-0.6,1.6-1.9,2.4-2.8c0.6-0.8,1.2-0.9,2-0.1c0.7,0.7,1.8,1.8,2.5,2.5
			c0.8,0.9,2,2.2,2.9,3.1l-0.8,0.9c-0.9-1-1.9-2.3-2.7-3.1c-0.7-0.8-1.8-2-2.3-2.5c-0.5-0.5-0.7-0.4-1.1,0.1c-0.6,0.7-1.6,2-2.1,2.7
			c-0.2,0.3-0.5,0.7-0.7,0.9L509.9,16.3z M517.2,12.3c0-0.8,0.7-1.5,1.5-1.5s1.5,0.7,1.5,1.5s-0.6,1.5-1.5,1.5
			S517.2,13.1,517.2,12.3z M517.8,12.3c0,0.5,0.4,0.9,0.9,0.9c0.5,0,0.9-0.4,0.9-0.9c0-0.5-0.4-0.9-0.9-0.9
			C518.2,11.4,517.8,11.8,517.8,12.3z"/>
		<path d="M522.5,14.3c0.4,0,1,0.1,1.7,0.1h6.6c0.6,0,1,0,1.3-0.1v1.2c-0.2,0-0.7-0.1-1.3-0.1h-6.6c-0.7,0-1.3,0-1.7,0.1V14.3z"/>
		<path d="M533.6,18.7c2.1-0.3,3.7-1,4.8-1.8c1.8-1.2,3.3-2.9,4-4.4l0.6,1c-0.8,1.5-2.2,3.1-4,4.3c-1.2,0.8-2.7,1.5-4.7,1.9
			L533.6,18.7z M534.7,10.7c0.9,0.6,2.4,1.8,3.1,2.5l-0.8,0.8c-0.6-0.6-2.1-1.9-3-2.5L534.7,10.7z"/>
		<path d="M544,16.3c0.3-0.3,0.5-0.5,0.9-0.8c0.6-0.6,1.6-1.9,2.4-2.8c0.6-0.8,1.2-0.9,2-0.1c0.7,0.7,1.8,1.8,2.5,2.5
			c0.8,0.9,2,2.2,2.9,3.1l-0.8,0.9c-0.9-1-1.9-2.3-2.7-3.1c-0.7-0.8-1.8-2-2.3-2.5c-0.5-0.5-0.7-0.4-1.1,0.1c-0.6,0.7-1.6,2-2.1,2.7
			c-0.2,0.3-0.5,0.7-0.7,0.9L544,16.3z M551.7,11.4c0.3,0.4,0.9,1.3,1.1,1.9l-0.7,0.3c-0.3-0.6-0.7-1.4-1.1-1.9L551.7,11.4z
			 M553.2,10.8c0.3,0.4,0.9,1.3,1.2,1.9l-0.7,0.3c-0.3-0.6-0.7-1.4-1.2-1.9L553.2,10.8z"/>
		<path d="M556.6,14.3c0.4,0,1,0.1,1.7,0.1h6.6c0.6,0,1,0,1.3-0.1v1.2c-0.2,0-0.7-0.1-1.3-0.1h-6.6c-0.7,0-1.3,0-1.7,0.1V14.3z"/>
		<path d="M575.7,11.5c-0.1,0.1-0.2,0.4-0.3,0.5c-0.4,1-1.2,2.4-2,3.5c1.3,1.1,2.7,2.6,3.5,3.6l-0.8,0.7c-0.8-1.1-2.1-2.5-3.3-3.6
			c-1.3,1.4-2.9,2.7-4.7,3.5l-0.8-0.8c1.9-0.8,3.7-2.2,4.9-3.6c0.8-0.9,1.7-2.3,2-3.3h-4.7c-0.4,0-1.1,0-1.2,0.1V11
			c0.2,0,0.9,0.1,1.2,0.1h4.6c0.4,0,0.7,0,0.9-0.1L575.7,11.5z"/>
	</g>
</g>
<g class="st2">
	<rect x="4.7" y="65.2" class="st3" width="172.6" height="63.1"/>
	<path class="st4" d="M174.7,67.7v58.1H7.2V67.7H174.7 M179.7,62.7h-5H7.2h-5v5v58.1v5h5h167.6h5v-5V67.7V62.7L179.7,62.7z"/>
</g>
<rect x="-69.4" y="60" class="st5" width="17.3" height="17.3"/>
<rect x="-67.6" y="86.8" class="st6" width="17.3" height="17.3"/>
<path class="st7" d="M90.9,129.2c0,0-0.7,208.8-0.3,278.9c0,6.4-3.8,16,24.6,12.6"/>
<polyline class="st7" points="167,437.4 167,473 182.3,473 "/>
<polyline class="st7" points="261.1,285.9 261.1,378.6 278.1,378.6 "/>
<line class="st7" x1="273.5" y1="322.6" x2="261.1" y2="322.6"/>
<line class="st7" x1="274.2" y1="350.6" x2="261.1" y2="350.6"/>
<polyline class="st7" points="209.2,241.5 209.2,277.5 223.8,277.5 "/>
<polyline class="st7" points="161,195.7 161,231.7 175.6,231.7 "/>
<g>
	<g>
		<path class="st0" d="M161,211.2c-2.6,0-4.7-2.1-4.7-4.7c0-2.6,2.1-4.7,4.7-4.7s4.7,2.1,4.7,4.7C165.7,209.1,163.6,211.2,161,211.2
			z"/>
		<path class="st4" d="M161,202.2c2.3,0,4.2,1.9,4.2,4.2c0,2.3-1.9,4.2-4.2,4.2s-4.2-1.9-4.2-4.2C156.8,204.1,158.7,202.2,161,202.2
			 M161,201.2c-2.9,0-5.2,2.3-5.2,5.2s2.3,5.2,5.2,5.2s5.2-2.3,5.2-5.2S163.9,201.2,161,201.2L161,201.2z"/>
	</g>
	<g transform="translate(-0.5 -0.5)">
		<g class="st2">
			<path d="M163,207.5H160v-1.1h2.9V207.5z"/>
		</g>
	</g>
</g>
<g>
	<g>
		<path class="st0" d="M209.2,255.7c-2.6,0-4.7-2.1-4.7-4.7c0-2.6,2.1-4.7,4.7-4.7s4.7,2.1,4.7,4.7
			C213.9,253.6,211.8,255.7,209.2,255.7z"/>
		<path class="st4" d="M209.2,246.8c2.3,0,4.2,1.9,4.2,4.2c0,2.3-1.9,4.2-4.2,4.2s-4.2-1.9-4.2-4.2
			C204.9,248.7,206.8,246.8,209.2,246.8 M209.2,245.8c-2.9,0-5.2,2.3-5.2,5.2s2.3,5.2,5.2,5.2s5.2-2.3,5.2-5.2
			S212,245.8,209.2,245.8L209.2,245.8z"/>
	</g>
	<g transform="translate(-0.5 -0.5)">
		<g class="st2">
			<path d="M211.1,252h-2.9V251h2.9V252z"/>
		</g>
	</g>
</g>
<g>
	<g>
		<path class="st0" d="M261.1,300.9c-2.6,0-4.7-2.1-4.7-4.7c0-2.6,2.1-4.7,4.7-4.7s4.7,2.1,4.7,4.7
			C265.8,298.8,263.7,300.9,261.1,300.9z"/>
		<path class="st4" d="M261.1,291.9c2.3,0,4.2,1.9,4.2,4.2c0,2.3-1.9,4.2-4.2,4.2c-2.3,0-4.2-1.9-4.2-4.2
			C256.8,293.8,258.7,291.9,261.1,291.9 M261.1,290.9c-2.9,0-5.2,2.3-5.2,5.2s2.3,5.2,5.2,5.2s5.2-2.3,5.2-5.2
			S264,290.9,261.1,290.9L261.1,290.9z"/>
	</g>
	<g transform="translate(-0.5 -0.5)">
		<g class="st2">
			<path d="M263,297.2h-2.9v-1.1h2.9V297.2z"/>
		</g>
	</g>
</g>
<g>
	<g>
		<path class="st0" d="M167,452c-2.6,0-4.7-2.1-4.7-4.7c0-2.6,2.1-4.7,4.7-4.7s4.7,2.1,4.7,4.7C171.7,449.9,169.6,452,167,452z"/>
		<path class="st4" d="M167,443.1c2.3,0,4.2,1.9,4.2,4.2c0,2.3-1.9,4.2-4.2,4.2s-4.2-1.9-4.2-4.2C162.8,445,164.7,443.1,167,443.1
			 M167,442.1c-2.9,0-5.2,2.3-5.2,5.2s2.3,5.2,5.2,5.2s5.2-2.3,5.2-5.2S169.9,442.1,167,442.1L167,442.1z"/>
	</g>
	<g transform="translate(-0.5 -0.5)">
		<g class="st2">
			<path d="M169,448.4H166v-1.1h2.9V448.4z"/>
		</g>
	</g>
</g>
<g class="st2">
	<rect x="171.9" y="221.3" class="st8" width="74.5" height="22"/>
	<path class="st3" d="M245.2,222.6v19.5h-72v-19.5H245.2 M247.7,220.1h-2.5h-72h-2.5v2.5v19.5v2.5h2.5h72h2.5v-2.5v-19.5V220.1
		L247.7,220.1z"/>
</g>
<g class="st2">
	<rect x="219" y="266.5" class="st8" width="84.2" height="22"/>
	<path class="st3" d="M301.9,267.7v19.5h-81.7v-19.5H301.9 M304.4,265.2h-2.5h-81.7h-2.5v2.5v19.5v2.5h2.5h81.7h2.5v-2.5v-19.5
		V265.2L304.4,265.2z"/>
</g>
<g class="st2">
	<rect x="271.3" y="311.6" class="st8" width="51.3" height="22"/>
	<path class="st3" d="M321.3,312.9v19.5h-48.8v-19.5H321.3 M323.8,310.4h-2.5h-48.8H270v2.5v19.5v2.5h2.5h48.8h2.5v-2.5v-19.5V310.4
		L323.8,310.4z"/>
</g>
<g class="st2">
	<rect x="271.3" y="339.6" class="st8" width="71.1" height="22"/>
	<path class="st3" d="M341.2,340.9v19.5h-68.6v-19.5H341.2 M343.7,338.4h-2.5h-68.6H270v2.5v19.5v2.5h2.5h68.6h2.5v-2.5v-19.5V338.4
		L343.7,338.4z"/>
</g>
<g class="st2">
	<rect x="178.1" y="462.5" class="st8" width="83.2" height="22"/>
	<path class="st3" d="M260,463.7v19.5h-80.7v-19.5H260 M262.5,461.2H260h-80.7h-2.5v2.5v19.5v2.5h2.5H260h2.5v-2.5v-19.5V461.2
		L262.5,461.2z"/>
</g>
<g class="st2">
	<rect x="271.3" y="367.6" class="st8" width="89.7" height="22"/>
	<path class="st3" d="M359.8,368.9v19.5h-87.2v-19.5H359.8 M362.3,366.4h-2.5h-87.2H270v2.5v19.5v2.5h2.5h87.2h2.5v-2.5v-19.5V366.4
		L362.3,366.4z"/>
</g>
<g>
	<rect x="110.8" y="402.9" class="st0" width="111.2" height="36.9"/>
	<path class="st4" d="M221,403.9v34.9H111.8v-34.9H221 M223,401.9h-2H111.8h-2v2v34.9v2h2H221h2v-2v-34.9V401.9L223,401.9z"/>
</g>
<path class="st7" d="M90.9,170.3c0,0-2.1,9.8,10.4,9.6h16.3"/>
<g>
	<rect x="111.4" y="161.4" class="st0" width="99.2" height="36.9"/>
	<path class="st4" d="M209.6,162.4v34.9h-97.2v-34.9H209.6 M211.6,160.4h-2h-97.2h-2v2v34.9v2h2h97.2h2v-2v-34.9V160.4L211.6,160.4z
		"/>
</g>
<g transform="translate(-0.5 -0.5)">
	<g class="st2">
		<path d="M39.1,104.6h-2.7l4.4-12.2h2.9l4.3,12.2h-2.8l-0.8-2.5H40L39.1,104.6z M40.7,99.9h3.1l-1.5-4.8h0L40.7,99.9z"/>
		<path d="M58.7,94.5h-6.5v2.6h6v2.2h-6v3.2H59v2.2h-9.3V92.3h9V94.5z"/>
		<path d="M72.8,104.6h-2.4V94.4h0l-2.3,10.2h-2.5l-2.2-10.2h0v10.2h-2.4V92.3h3.7l2.2,9.6h0l2.2-9.6h3.7V104.6z"/>
		<path d="M81.7,104.6H79l4.4-12.2h2.9l4.3,12.2h-2.8l-0.8-2.5h-4.5L81.7,104.6z M83.2,99.9h3.1l-1.5-4.8h0L83.2,99.9z"/>
		<path d="M94.1,100.8c0,0.7,0.4,2,2.6,2c1.2,0,2.6-0.3,2.6-1.6c0-1-0.9-1.2-2.2-1.5l-1.3-0.3c-2-0.5-3.9-0.9-3.9-3.6
			c0-1.4,0.7-3.8,4.7-3.8c3.7,0,4.8,2.5,4.8,4h-2.5c-0.1-0.5-0.3-1.8-2.5-1.8c-1,0-2.1,0.4-2.1,1.5c0,1,0.8,1.2,1.3,1.3l3,0.7
			c1.7,0.4,3.2,1.1,3.2,3.3c0,3.7-3.7,4-4.8,4c-4.5,0-5.2-2.6-5.2-4.1H94.1z"/>
		<path d="M105.4,100.8c0,0.7,0.4,2,2.6,2c1.2,0,2.6-0.3,2.6-1.6c0-1-0.9-1.2-2.2-1.5l-1.3-0.3c-2-0.5-3.9-0.9-3.9-3.6
			c0-1.4,0.7-3.8,4.7-3.8c3.7,0,4.8,2.5,4.8,4h-2.5c-0.1-0.5-0.3-1.8-2.5-1.8c-1,0-2.1,0.4-2.1,1.5c0,1,0.8,1.2,1.3,1.3l3,0.7
			c1.7,0.4,3.2,1.1,3.2,3.3c0,3.7-3.7,4-4.8,4c-4.5,0-5.2-2.6-5.2-4.1H105.4z"/>
		<path d="M124,94.5h-6.5v2.6h6v2.2h-6v3.2h6.8v2.2H115V92.3h9V94.5z"/>
		<path d="M131.5,104.6H129V94.5h-3.7v-2.2h9.9v2.2h-3.7V104.6z"/>
		<path d="M138.6,100.8c0,0.7,0.4,2,2.6,2c1.2,0,2.6-0.3,2.6-1.6c0-1-0.9-1.2-2.2-1.5l-1.3-0.3c-2-0.5-3.9-0.9-3.9-3.6
			c0-1.4,0.7-3.8,4.7-3.8c3.7,0,4.8,2.5,4.8,4h-2.5c-0.1-0.5-0.3-1.8-2.5-1.8c-1,0-2.1,0.4-2.1,1.5c0,1,0.8,1.2,1.3,1.3l3,0.7
			c1.7,0.4,3.2,1.1,3.2,3.3c0,3.7-3.7,4-4.8,4c-4.5,0-5.2-2.6-5.2-4.1H138.6z"/>
	</g>
</g>
<g transform="translate(-0.5 -0.5)" class="st2">
	<g class="st2">
		<path class="st9" d="M138.8,185.4C138.7,185.5,138.7,185.5,138.8,185.4l-0.9,0.1c-0.1,0-0.1,0-0.1-0.1l3-10.7c0-0.1,0-0.1,0.1-0.1
			h0.8c0.1,0,0.1,0,0.1,0.1L138.8,185.4z"/>
		<path class="st9" d="M147.9,178.8v7.1h-0.9v-11.3h4.7v4.2H147.9z M147.9,175.3v1h2.8v-1H147.9z M150.7,178V177h-2.8v1.1H150.7z
			 M157.6,184.7c0,0.5-0.1,0.8-0.5,1c-0.3,0.2-0.9,0.2-1.7,0.2c0-0.2-0.1-0.6-0.3-0.9c-0.1,0.1-0.1,0.2-0.1,0.2
			c-1.3-0.3-2.2-1-2.8-2c-0.4,0.7-1.2,1.5-2.9,2c-0.1-0.2-0.4-0.5-0.6-0.6c1.8-0.5,2.5-1.2,2.8-1.9h-2.7V182h2.8v-0.1V181h-2.6v-0.7
			h1.4c-0.1-0.3-0.4-0.8-0.6-1.1l0.8-0.2c0.3,0.4,0.6,0.9,0.7,1.3h1.7c0.2-0.4,0.5-0.9,0.6-1.3l0.9,0.3c-0.2,0.4-0.5,0.7-0.7,1h1.5
			v0.7h-2.8v0.9v0.1h3.1v0.7h-2.9c0.5,0.9,1.5,1.6,2.8,1.8c-0.1,0.1-0.3,0.3-0.4,0.4c0.5,0,1.1,0,1.2,0c0.2,0,0.2-0.1,0.2-0.2v-6
			h-3.9v-4.2h4.8V184.7z M153.7,175.3v1h3v-1H153.7z M156.6,178.1V177h-3v1.1H156.6z"/>
		<path class="st9" d="M170.4,177.3c-0.3,2.1-0.8,3.8-1.6,5.2c0.7,1.1,1.5,2,2.5,2.5c-0.2,0.2-0.5,0.6-0.7,0.8
			c-1-0.6-1.8-1.4-2.4-2.5c-0.8,1-1.7,1.8-3,2.5c-0.1-0.2-0.2-0.5-0.4-0.7l-0.3,0.3c-0.4-0.3-0.9-0.7-1.5-1
			c-0.8,0.6-1.8,1.1-3.2,1.4c-0.1-0.3-0.3-0.6-0.4-0.8c1.2-0.2,2.1-0.5,2.8-1c-0.4-0.2-0.8-0.4-1.3-0.6l-0.2,0.4l-0.8-0.3
			c0.3-0.5,0.6-1.2,1-1.8h-1.5v-0.8h1.9c0.2-0.4,0.4-0.8,0.5-1.1l0.3,0.1v-1.8c-0.6,0.8-1.5,1.5-2.3,1.9c-0.1-0.2-0.4-0.6-0.5-0.7
			c0.9-0.4,1.9-1.2,2.5-2.1h-2.4v-0.8h2.7V174h0.9v2.4h2.6v0.8h-2.6v0.1c0.6,0.3,2,1.2,2.3,1.5l-0.5,0.7c-0.3-0.3-1.2-0.9-1.8-1.4
			v1.9h-0.6l0.2,0.1c-0.1,0.3-0.3,0.6-0.4,0.9h3.5v0.8h-1.1c-0.2,0.9-0.5,1.6-0.9,2.2c0.6,0.3,1.1,0.6,1.5,0.9
			c1.1-0.6,2-1.4,2.6-2.4c-0.5-1.1-0.9-2.3-1.2-3.6c-0.3,0.6-0.6,1.2-0.9,1.6c-0.1-0.2-0.6-0.5-0.8-0.7c1.1-1.4,1.8-3.5,2.1-5.8
			l1,0.1c-0.1,0.8-0.3,1.5-0.5,2.2h3.8v0.9H170.4z M160.6,176.3c-0.1-0.5-0.5-1.2-0.8-1.7l0.7-0.3c0.4,0.5,0.7,1.2,0.8,1.7
			L160.6,176.3z M161.7,181.7c-0.2,0.4-0.4,0.7-0.5,1.1c0.5,0.2,1,0.4,1.5,0.7c0.4-0.5,0.6-1,0.8-1.7H161.7z M165.3,174.6
			c-0.4,0.6-0.8,1.2-1.2,1.7l-0.6-0.3c0.3-0.5,0.8-1.2,1-1.7L165.3,174.6z M167.1,177.3c0.2,1.5,0.6,2.9,1.1,4.1
			c0.6-1.2,0.9-2.5,1.1-4.1L167.1,177.3L167.1,177.3z"/>
		<path class="st9" d="M172.3,181.7C172.3,181.7,172.2,181.7,172.3,181.7l-0.1-0.9c0-0.1,0-0.1,0.1-0.1h3.2c0.1,0,0.1,0,0.1,0.1v0.8
			c0,0.1,0,0.1-0.1,0.1H172.3z"/>
		<path class="st9" d="M177.3,184.9c-0.1,0-0.1,0-0.1-0.1v-9.4c0-0.1,0-0.1,0.1-0.1h1.3c0.1,0,0.1,0,0.1,0.1c1.3,2.2,4.2,7,4.8,8.2
			h0c0-0.4,0-1,0-2.2v-5.9c0-0.1,0-0.1,0.1-0.1h0.9c0.1,0,0.1,0,0.1,0.1v9.4c0,0.1,0,0.1-0.1,0.1h-1.2c-0.1,0-0.1,0-0.2-0.1
			c-0.6-1.2-4.4-7.4-4.9-8.4h0c0,0.5,0.1,1.3,0.1,2.5v5.9c0,0.1,0,0.1-0.1,0.1H177.3z"/>
	</g>
</g>
<g transform="translate(-0.5 -0.5)" class="st2">
	<g class="st2">
		<path class="st9" d="M138.3,428C138.3,428,138.3,428.1,138.3,428l-0.9,0.1c-0.1,0-0.1,0-0.1-0.1l3-10.7c0-0.1,0-0.1,0.1-0.1h0.8
			c0.1,0,0.1,0,0.1,0.1L138.3,428z"/>
		<path class="st9" d="M147.4,421.3v7.1h-0.9v-11.3h4.7v4.2H147.4z M147.4,417.9v1h2.8v-1H147.4z M150.2,420.6v-1.1h-2.8v1.1H150.2z
			 M157.1,427.3c0,0.5-0.1,0.8-0.5,1c-0.3,0.2-0.9,0.2-1.7,0.2c0-0.2-0.1-0.6-0.3-0.9c-0.1,0.1-0.1,0.2-0.1,0.2
			c-1.3-0.3-2.2-1-2.8-2c-0.4,0.7-1.2,1.5-2.9,2c-0.1-0.2-0.4-0.5-0.6-0.7c1.8-0.5,2.5-1.2,2.8-1.9h-2.7v-0.7h2.8v-0.1v-0.9h-2.6
			v-0.7h1.4c-0.1-0.3-0.4-0.8-0.6-1.1l0.8-0.2c0.3,0.4,0.6,0.9,0.7,1.3h1.7c0.2-0.4,0.5-0.9,0.6-1.3l0.9,0.3c-0.2,0.4-0.5,0.7-0.7,1
			h1.5v0.7h-2.8v0.9v0.1h3.1v0.7h-2.9c0.5,0.9,1.5,1.6,2.8,1.8c-0.1,0.1-0.3,0.3-0.4,0.4c0.5,0,1.1,0,1.2,0c0.2,0,0.2-0.1,0.2-0.2
			v-6h-3.9v-4.2h4.8V427.3z M153.2,417.9v1h3v-1H153.2z M156.2,420.6v-1.1h-3v1.1H156.2z"/>
		<path class="st9" d="M169.9,419.9c-0.3,2.1-0.8,3.8-1.6,5.2c0.6,1.1,1.5,2,2.5,2.5c-0.2,0.2-0.5,0.6-0.7,0.8
			c-1-0.6-1.8-1.4-2.4-2.5c-0.8,1-1.7,1.8-3,2.5c-0.1-0.2-0.2-0.5-0.4-0.7l-0.3,0.3c-0.4-0.3-0.9-0.7-1.5-1
			c-0.8,0.6-1.8,1.1-3.2,1.4c-0.1-0.3-0.3-0.6-0.4-0.8c1.2-0.2,2.1-0.5,2.8-1c-0.4-0.2-0.8-0.4-1.3-0.6l-0.2,0.4l-0.8-0.3
			c0.3-0.5,0.6-1.2,1-1.8h-1.5v-0.8h1.9c0.2-0.4,0.4-0.8,0.5-1.1l0.3,0.1v-1.8c-0.7,0.8-1.5,1.5-2.3,1.9c-0.1-0.2-0.4-0.6-0.5-0.7
			c0.9-0.4,1.9-1.2,2.5-2.1h-2.4V419h2.7v-2.4h0.9v2.4h2.6v0.8h-2.6v0.1c0.6,0.3,2,1.2,2.3,1.5l-0.5,0.7c-0.3-0.3-1.2-0.9-1.8-1.4
			v1.9h-0.6l0.2,0.1c-0.1,0.3-0.3,0.6-0.4,0.9h3.5v0.8H164c-0.2,0.9-0.5,1.6-0.9,2.2c0.6,0.3,1.1,0.6,1.5,0.9c1.1-0.6,2-1.4,2.6-2.4
			c-0.5-1.1-0.9-2.3-1.2-3.6c-0.3,0.6-0.6,1.2-0.9,1.6c-0.1-0.2-0.6-0.5-0.8-0.7c1.1-1.4,1.8-3.5,2.1-5.8l1,0.1
			c-0.1,0.8-0.3,1.5-0.5,2.2h3.8v0.9H169.9z M160.2,418.9c-0.1-0.5-0.5-1.2-0.8-1.7l0.7-0.3c0.4,0.5,0.7,1.2,0.8,1.7L160.2,418.9z
			 M161.3,424.3c-0.2,0.4-0.4,0.7-0.5,1.1c0.5,0.2,1,0.4,1.5,0.7c0.4-0.5,0.6-1,0.8-1.7H161.3z M164.8,417.2
			c-0.4,0.6-0.8,1.2-1.2,1.7l-0.7-0.3c0.3-0.5,0.8-1.2,1-1.7L164.8,417.2z M166.6,419.9c0.2,1.5,0.6,2.9,1.1,4.1
			c0.6-1.2,0.9-2.5,1.1-4.1L166.6,419.9L166.6,419.9z"/>
		<path class="st9" d="M175.9,427.5c-0.1,0-0.1,0-0.1-0.1v-9.4c0-0.1,0-0.1,0.1-0.1h1.3c0.1,0,0.1,0,0.1,0.1c1.3,2.2,4.2,7,4.8,8.2
			h0c0-0.4,0-1,0-2.2v-5.9c0-0.1,0-0.1,0.1-0.1h0.9c0.1,0,0.1,0,0.1,0.1v9.4c0,0.1,0,0.1-0.1,0.1h-1.2c-0.1,0-0.1,0-0.2-0.1
			c-0.6-1.2-4.4-7.4-4.9-8.4h0c0,0.5,0.1,1.3,0.1,2.5v5.9c0,0.1,0,0.1-0.1,0.1H175.9z"/>
		<path class="st9" d="M188.8,420C188.8,420,188.9,420,188.8,420l0.1,3.2h3c0.1,0,0.1,0,0.1,0.1v0.7c0,0.1,0,0.1-0.1,0.1h-3v3.2
			c0,0.1,0,0.1-0.1,0.1h-0.7c-0.1,0-0.1,0-0.1-0.1v-3.2h-3.1c-0.1,0-0.1,0-0.1-0.1v-0.7c0-0.1,0.1-0.1,0.1-0.1h3.1v-3.2
			c0,0,0-0.1,0.1-0.1H188.8z"/>
		<path class="st9" d="M194.6,427.5C194.5,427.5,194.5,427.4,194.6,427.5l-0.1-8.1c-0.5,0.3-1.3,0.6-1.8,0.7c-0.1,0-0.1,0-0.1-0.1
			v-0.8c0-0.1,0-0.1,0.1-0.1c0.7-0.2,1.5-0.6,2-0.9c0.1-0.1,0.1-0.1,0.2-0.1h0.6c0.1,0,0.1,0,0.1,0.1v9.2c0,0.1,0,0.1-0.1,0.1H194.6
			z"/>
	</g>
</g>
<g transform="translate(-0.5 -0.5)" class="st2">
	<g class="st2">
		<path class="st10" d="M192.1,477.2C192.1,477.3,192.1,477.3,192.1,477.2l-0.6,0c0,0-0.1,0,0-0.1l2.1-7.7c0,0,0,0,0.1,0h0.6
			c0,0,0.1,0,0,0.1L192.1,477.2z"/>
		<path class="st10" d="M200.7,469.5h0.9c0,0.2,0,0.5-0.1,0.8c0,0.3,0,0.7,0,1h2.2c0.3,0,0.4,0,0.6,0l0.5,0.3c0,0.2,0,0.3,0,0.5
			c0,0.9-0.1,3.6-0.6,4.5c-0.2,0.4-0.5,0.6-1,0.6c-0.5,0-1,0-1.5-0.1l-0.1-0.8c0.5,0.1,1,0.1,1.4,0.1c0.3,0,0.4-0.1,0.5-0.3
			c0.4-0.7,0.5-3,0.5-4h-2.6c-0.3,2.7-1.3,4.1-2.9,5.2l-0.7-0.6c0.3-0.2,0.7-0.4,1-0.7c0.9-0.8,1.6-2,1.9-3.9h-1.6
			c-0.4,0-0.7,0-1.1,0v-0.8c0.3,0,0.7,0.1,1.1,0.1h1.6c0-0.3,0-0.6,0-1C200.8,470,200.8,469.7,200.7,469.5z"/>
		<path class="st10" d="M206.3,472.3c0.3,0,0.5,0,0.8,0h6.1c0.2,0,0.5,0,0.7,0v0.8c-0.2,0-0.5,0-0.7,0h-2.5c0,1-0.2,1.9-0.6,2.6
			c-0.3,0.6-1,1.3-1.8,1.7l-0.7-0.5c0.7-0.3,1.4-0.8,1.8-1.4c0.4-0.7,0.5-1.4,0.5-2.3h-2.8c-0.3,0-0.6,0-0.8,0V472.3z M207.4,469.9
			c0.3,0,0.5,0.1,0.8,0.1h3.8c0.3,0,0.6,0,0.9-0.1v0.8c-0.3,0-0.6,0-0.9,0h-3.8c-0.3,0-0.6,0-0.9,0V469.9z"/>
		<path class="st10" d="M215.4,471.5v-0.8c0.3,0,0.7,0.1,1,0.1h4.6c0.2,0,0.5,0,0.7,0c0,0.2,0,0.5,0,0.7v4.8c0,0.3,0,0.8,0,0.9h-0.8
			c0-0.1,0-0.3,0-0.5h-4.6c-0.4,0-0.8,0-1.1,0v-0.9c0.2,0,0.6,0.1,1,0.1h4.6v-4.4h-4.5C216,471.5,215.6,471.5,215.4,471.5z
			 M220.8,469.1c0.2,0.3,0.6,0.9,0.8,1.2l-0.5,0.2c-0.2-0.4-0.5-0.9-0.7-1.3L220.8,469.1z M222,468.8c0.2,0.3,0.6,0.9,0.8,1.2
			l-0.5,0.2c-0.2-0.4-0.5-0.9-0.8-1.2L222,468.8z"/>
		<path class="st10" d="M224.4,469.8h0.9c0,0.2,0,0.5,0,0.7v3.1c0,0.2,0,0.5,0,0.7h-0.9c0-0.1,0-0.4,0-0.7v-3.1
			C224.5,470.3,224.5,470,224.4,469.8z M228.8,469.7h0.9c0,0.2,0,0.5,0,0.8v1.5c0,2.2-0.3,3-1,3.8c-0.6,0.7-1.5,1.1-2.2,1.4
			l-0.6-0.6c0.9-0.2,1.7-0.6,2.2-1.2c0.7-0.8,0.8-1.5,0.8-3.3v-1.5C228.8,470.2,228.8,470,228.8,469.7z"/>
		<path class="st10" d="M234.1,476.8C234,476.8,234,476.8,234.1,476.8L234,470c0,0,0-0.1,0.1-0.1h1c0,0,0.1,0,0.1,0.1
			c0.9,1.6,3,5,3.4,5.9h0c0-0.3,0-0.7,0-1.6V470c0-0.1,0-0.1,0.1-0.1h0.6c0.1,0,0.1,0,0.1,0.1v6.8c0,0.1,0,0.1-0.1,0.1h-0.9
			c-0.1,0-0.1,0-0.1-0.1c-0.4-0.8-3.2-5.3-3.5-6.1h0c0,0.4,0,0.9,0,1.8v4.2c0,0.1,0,0.1-0.1,0.1H234.1z"/>
		<path class="st10" d="M243.4,471.5C243.4,471.5,243.4,471.5,243.4,471.5l0.1,2.3h2.2c0,0,0.1,0,0.1,0.1v0.5c0,0.1,0,0.1-0.1,0.1
			h-2.2v2.3c0,0,0,0.1-0.1,0.1h-0.5c-0.1,0-0.1,0-0.1-0.1v-2.3h-2.2c0,0-0.1,0-0.1-0.1v-0.5c0,0,0-0.1,0.1-0.1h2.2v-2.3
			c0,0,0-0.1,0.1-0.1H243.4z"/>
		<path class="st10" d="M247.6,476.8C247.5,476.8,247.5,476.8,247.6,476.8l-0.1-5.9c-0.3,0.2-0.9,0.4-1.3,0.5c0,0-0.1,0-0.1-0.1
			v-0.6c0,0,0-0.1,0-0.1c0.5-0.1,1.1-0.4,1.5-0.7c0,0,0.1,0,0.1,0h0.5c0,0,0.1,0,0.1,0.1v6.6c0,0.1,0,0.1-0.1,0.1H247.6z"/>
	</g>
</g>
<g transform="translate(-0.5 -0.5)" class="st2">
	<g class="st2">
		<path class="st10" d="M186.2,236.2C186.1,236.3,186.1,236.3,186.2,236.2l-0.6,0c0,0-0.1,0,0-0.1l2.1-7.7c0,0,0,0,0.1,0h0.6
			c0,0,0.1,0,0,0.1L186.2,236.2z"/>
		<path class="st10" d="M194.8,228.5h0.9c0,0.2,0,0.5-0.1,0.8c0,0.3,0,0.7,0,1h2.2c0.3,0,0.4,0,0.6,0l0.5,0.3c0,0.2,0,0.3,0,0.5
			c0,0.9-0.1,3.6-0.6,4.5c-0.2,0.4-0.5,0.6-1,0.6c-0.5,0-1,0-1.5-0.1l-0.1-0.8c0.5,0.1,1,0.1,1.4,0.1c0.3,0,0.4-0.1,0.5-0.3
			c0.4-0.7,0.5-3,0.5-4h-2.6c-0.3,2.7-1.3,4.1-2.9,5.2l-0.7-0.6c0.3-0.2,0.7-0.4,1-0.7c0.9-0.8,1.6-2,1.9-3.9h-1.6
			c-0.4,0-0.7,0-1.1,0v-0.8c0.3,0,0.7,0.1,1.1,0.1h1.6c0-0.3,0-0.6,0-1C194.9,229.1,194.9,228.7,194.8,228.5z"/>
		<path class="st10" d="M200.3,231.3c0.3,0,0.5,0,0.8,0h6.1c0.2,0,0.5,0,0.7,0v0.8c-0.2,0-0.5,0-0.7,0h-2.5c0,1-0.2,1.9-0.6,2.6
			c-0.3,0.6-1,1.3-1.8,1.7l-0.7-0.5c0.7-0.3,1.4-0.8,1.8-1.4c0.4-0.7,0.5-1.4,0.5-2.3h-2.8c-0.3,0-0.6,0-0.8,0V231.3z M201.5,228.9
			c0.3,0,0.5,0.1,0.8,0.1h3.8c0.3,0,0.6,0,0.9-0.1v0.8c-0.3,0-0.6,0-0.9,0h-3.8c-0.3,0-0.6,0-0.9,0V228.9z"/>
		<path class="st10" d="M209.4,230.6v-0.8c0.3,0,0.7,0.1,1,0.1h4.6c0.2,0,0.5,0,0.7,0c0,0.2,0,0.5,0,0.7v4.8c0,0.3,0,0.8,0,0.9h-0.8
			c0-0.1,0-0.3,0-0.5h-4.6c-0.4,0-0.8,0-1.1,0v-0.9c0.2,0,0.6,0.1,1,0.1h4.6v-4.4h-4.5C210.1,230.5,209.6,230.5,209.4,230.6z
			 M214.9,228.1c0.2,0.3,0.6,0.9,0.8,1.2l-0.5,0.2c-0.2-0.4-0.5-0.9-0.7-1.3L214.9,228.1z M216.1,227.9c0.2,0.3,0.6,0.9,0.8,1.2
			l-0.5,0.2c-0.2-0.4-0.5-0.9-0.8-1.2L216.1,227.9z"/>
		<path class="st10" d="M218.5,228.8h0.9c0,0.2,0,0.5,0,0.7v3.1c0,0.2,0,0.5,0,0.7h-0.9c0-0.1,0-0.4,0-0.7v-3.1
			C218.5,229.3,218.5,229,218.5,228.8z M222.8,228.8h0.9c0,0.2,0,0.5,0,0.8v1.5c0,2.2-0.3,3-1,3.8c-0.6,0.7-1.5,1.1-2.2,1.4
			l-0.6-0.6c0.9-0.2,1.7-0.6,2.2-1.2c0.7-0.8,0.8-1.5,0.8-3.3v-1.5C222.9,229.3,222.9,229,222.8,228.8z"/>
		<path class="st10" d="M228.2,235.9C228.1,235.9,228.1,235.9,228.2,235.9l-0.1-6.9c0,0,0-0.1,0.1-0.1h1c0,0,0.1,0,0.1,0.1
			c0.9,1.6,3,5,3.4,5.9h0c0-0.3,0-0.7,0-1.6V229c0-0.1,0-0.1,0.1-0.1h0.6c0.1,0,0.1,0,0.1,0.1v6.8c0,0.1,0,0.1-0.1,0.1h-0.9
			c-0.1,0-0.1,0-0.1-0.1c-0.4-0.8-3.2-5.3-3.5-6.1h0c0,0.4,0,0.9,0,1.8v4.2c0,0.1,0,0.1-0.1,0.1H228.2z"/>
	</g>
</g>
<g transform="translate(-0.5 -0.5)" class="st2">
	<g class="st2">
		<path class="st10" d="M238,275.5h1c0.4,0,0.7,0,0.9,0v0.8c-0.1,0-0.4,0-0.9,0h-1v0.3c0,2.5-0.5,3.8-2.7,4.7l-0.6-0.6
			c1.7-0.7,2.6-1.5,2.6-4.1v-0.4h-2.7v1.5c0,0.3,0,0.8,0,0.9h-0.8c0-0.1,0-0.5,0-0.9v-1.5h-1c-0.4,0-0.8,0-0.9,0v-0.8
			c0.1,0,0.5,0.1,0.9,0.1h1v-1.2c0-0.2,0-0.5,0-0.7h0.8c0,0.1,0,0.4,0,0.7v1.2h2.7v-1.2c0-0.4,0-0.7,0-0.8h0.8c0,0.1,0,0.4,0,0.8
			V275.5z"/>
		<path class="st10" d="M246.9,273.1c0.2,0.3,0.6,0.9,0.7,1.2l-0.4,0.2l0.5,0.3c-0.1,0.1-0.1,0.3-0.1,0.5c-0.2,1-0.7,2.5-1.4,3.5
			c-0.9,1.1-2,2-3.7,2.5l-0.6-0.7c1.8-0.4,2.9-1.2,3.7-2.2c0.7-0.9,1.1-2.2,1.2-3.1h-4.8c-0.4,0-0.7,0-0.9,0v-0.8
			c0.3,0,0.6,0.1,0.9,0.1h4.7c0.1,0,0.3,0,0.4,0c-0.2-0.4-0.5-0.8-0.7-1.1L246.9,273.1z M248.1,272.8c0.2,0.3,0.6,0.9,0.8,1.2
			l-0.5,0.2c-0.2-0.4-0.5-0.9-0.8-1.2L248.1,272.8z"/>
		<path class="st10" d="M252.2,273.5h0.9c0,0.2,0,0.5-0.1,0.8c0,0.3,0,0.7,0,1h2.2c0.3,0,0.4,0,0.6,0l0.5,0.3c0,0.2,0,0.3,0,0.5
			c0,0.9-0.1,3.6-0.6,4.5c-0.2,0.4-0.5,0.6-1,0.6c-0.5,0-1,0-1.5-0.1l-0.1-0.8c0.5,0.1,1,0.1,1.4,0.1c0.3,0,0.4-0.1,0.5-0.3
			c0.4-0.7,0.5-3,0.5-4h-2.6c-0.3,2.7-1.3,4.1-2.9,5.2l-0.7-0.6c0.3-0.2,0.7-0.4,1-0.7c0.9-0.8,1.6-2,1.9-3.9h-1.6
			c-0.4,0-0.7,0-1.1,0v-0.8c0.3,0,0.7,0.1,1.1,0.1h1.6c0-0.3,0-0.6,0-1C252.3,274.1,252.2,273.7,252.2,273.5z"/>
		<path class="st10" d="M257.7,276.3c0.3,0,0.5,0,0.8,0h6.1c0.2,0,0.5,0,0.7,0v0.8c-0.2,0-0.5,0-0.7,0h-2.5c0,1-0.2,1.9-0.6,2.6
			c-0.3,0.6-1,1.3-1.8,1.7l-0.7-0.5c0.7-0.3,1.4-0.8,1.8-1.4c0.4-0.7,0.5-1.4,0.5-2.3h-2.8c-0.3,0-0.6,0-0.8,0V276.3z M258.9,273.9
			c0.3,0,0.5,0.1,0.8,0.1h3.8c0.3,0,0.6,0,0.9-0.1v0.8c-0.3,0-0.6,0-0.9,0h-3.8c-0.3,0-0.6,0-0.9,0V273.9z"/>
		<path class="st10" d="M266.8,275.5v-0.8c0.3,0,0.7,0.1,1,0.1h4.6c0.2,0,0.5,0,0.7,0c0,0.2,0,0.5,0,0.7v4.8c0,0.3,0,0.8,0,0.9h-0.8
			c0-0.1,0-0.3,0-0.5h-4.6c-0.4,0-0.8,0-1.1,0v-0.9c0.2,0,0.6,0.1,1,0.1h4.6v-4.4h-4.5C267.5,275.5,267,275.5,266.8,275.5z
			 M272.3,273.1c0.2,0.3,0.6,0.9,0.8,1.2l-0.5,0.2c-0.2-0.4-0.5-0.9-0.7-1.3L272.3,273.1z M273.5,272.9c0.2,0.3,0.6,0.9,0.8,1.2
			l-0.5,0.2c-0.2-0.4-0.5-0.9-0.8-1.2L273.5,272.9z"/>
		<path class="st10" d="M275.9,273.8h0.9c0,0.2,0,0.5,0,0.7v3.1c0,0.2,0,0.5,0,0.7h-0.9c0-0.1,0-0.4,0-0.7v-3.1
			C275.9,274.3,275.9,274,275.9,273.8z M280.2,273.7h0.9c0,0.2,0,0.5,0,0.8v1.5c0,2.2-0.3,3-1,3.8c-0.6,0.7-1.5,1.1-2.2,1.4
			l-0.6-0.6c0.9-0.2,1.7-0.6,2.2-1.2c0.7-0.8,0.8-1.5,0.8-3.3v-1.5C280.3,274.2,280.3,274,280.2,273.7z"/>
		<path class="st10" d="M285.6,280.9C285.5,280.9,285.5,280.8,285.6,280.9l-0.1-6.9c0,0,0-0.1,0.1-0.1h1c0,0,0.1,0,0.1,0.1
			c0.9,1.6,3,5,3.4,5.9h0c0-0.3,0-0.7,0-1.6V274c0-0.1,0-0.1,0.1-0.1h0.6c0.1,0,0.1,0,0.1,0.1v6.8c0,0.1,0,0.1-0.1,0.1h-0.9
			c-0.1,0-0.1,0-0.1-0.1c-0.4-0.8-3.2-5.3-3.5-6.1h0c0,0.4,0,0.9,0,1.8v4.2c0,0.1,0,0.1-0.1,0.1H285.6z"/>
	</g>
</g>
<g transform="translate(-0.5 -0.5)" class="st2">
	<g class="st2">
		<path class="st10" d="M296.8,318.1v0.6H293v1h1.9v4.2h-4.5v-4.2h1.9v-1h-3.7v-0.6H296.8z M295.9,319.7h0.7v6.3h-0.7v-0.6h-6.3v0.6
			h-0.7v-6.4h0.7v5.1h6.3V319.7z M291.1,321.6h1.3v-1.2h-1.3V321.6z M291.1,323.4h1.3v-1.2h-1.3V323.4z M294.3,320.4H293v1.2h1.3
			V320.4z M294.3,322.2H293v1.2h1.3V322.2z"/>
		<path class="st10" d="M300.3,317.7c-0.2,0.6-0.4,1.2-0.7,1.8v6.5h-0.7v-5.2c-0.3,0.5-0.6,0.9-0.9,1.3c-0.1-0.2-0.3-0.5-0.4-0.7
			c0.8-0.9,1.5-2.4,2-3.8L300.3,317.7z M306.3,322.1c-0.4,0.4-1.1,0.8-1.5,1.1c0.4,0.8,1,1.5,1.7,1.9c-0.1,0.1-0.4,0.4-0.5,0.6
			c-1.3-0.8-2.1-2.4-2.5-4.2h-0.2c-0.2,0.1-0.4,0.3-0.6,0.4c1.6,1.3,1.6,3.4,0.8,3.9c-0.3,0.2-0.5,0.3-0.9,0.3c-0.2,0-0.5,0-0.7,0
			c0-0.2-0.1-0.4-0.2-0.6c0.3,0,0.6,0,0.8,0c0.2,0,0.4,0,0.6-0.2c0.3-0.2,0.4-0.7,0.3-1.3c-0.8,0.7-2,1.4-3,1.8
			c-0.1-0.2-0.3-0.4-0.4-0.5c1.1-0.3,2.5-1.1,3.2-1.8c-0.1-0.2-0.2-0.4-0.3-0.6c-0.7,0.5-1.6,1-2.4,1.3c-0.1-0.1-0.2-0.4-0.4-0.5
			c0.8-0.2,1.9-0.7,2.5-1.2c-0.1-0.1-0.3-0.3-0.4-0.4c-0.6,0.3-1.2,0.6-1.8,0.8c-0.1-0.1-0.3-0.4-0.4-0.5c0.8-0.2,1.7-0.6,2.4-1
			h-1.8V320c-0.1,0.1-0.2,0.2-0.3,0.2c-0.1-0.1-0.3-0.3-0.5-0.4c1-0.7,1.7-1.6,2-2.3l0.7,0.1c-0.1,0.2-0.2,0.3-0.3,0.5h1.8l0.1,0
			l0.4,0.3c-0.2,0.3-0.4,0.7-0.7,1h2.1v2.1h-1.9c0.1,0.5,0.3,0.9,0.4,1.3c0.4-0.3,1-0.7,1.3-1L306.3,322.1z M301.2,320.9h1.7v-1.1
			h-1.7V320.9z M301.9,318.6c-0.2,0.2-0.4,0.5-0.6,0.7h1.9c0.2-0.2,0.4-0.5,0.5-0.7H301.9z M305.4,319.9h-1.8v1.1h1.8V319.9z"/>
	</g>
</g>
<g transform="translate(-0.5 -0.5)" class="st2">
	<g class="st2">
		<path class="st10" d="M284.7,353.8v-5.5c0-0.3,0-0.7-0.1-1h0.9c0,0.3-0.1,0.7-0.1,1v1.5c1.2,0.4,3,1,4,1.5l-0.3,0.8
			c-1-0.6-2.6-1.2-3.7-1.5v3.1c0,0.3,0,0.8,0.1,1.1h-0.9C284.6,354.6,284.7,354.2,284.7,353.8z M288,347.8c0.2,0.3,0.6,1,0.9,1.4
			l-0.5,0.2c-0.2-0.5-0.5-1-0.8-1.4L288,347.8z M289.1,347.3c0.2,0.3,0.7,1,0.9,1.4l-0.5,0.3c-0.3-0.5-0.6-1-0.9-1.4L289.1,347.3z"
			/>
		<path class="st10" d="M294.5,352.2c-1.1,0.2-2.1,0.3-2.5,0.4c-0.4,0.1-0.6,0.1-0.8,0.2l-0.2-0.8c0.2,0,0.6,0,0.8-0.1
			c0.5-0.1,1.5-0.2,2.6-0.4c-0.1-0.6-0.3-1.3-0.4-1.9c-0.9,0.1-1.7,0.3-2.1,0.3c-0.3,0-0.5,0.1-0.8,0.2l-0.2-0.8
			c0.2,0,0.5,0,0.8-0.1c0.4,0,1.2-0.2,2.1-0.3c-0.1-0.5-0.2-0.9-0.2-1c0-0.2-0.1-0.4-0.2-0.6l0.8-0.2c0,0.2,0.1,0.4,0.1,0.6
			c0,0.1,0.1,0.5,0.2,1c0.9-0.1,1.8-0.3,2.2-0.4c0.3,0,0.5-0.1,0.7-0.2l0.2,0.8c-0.1,0-0.4,0.1-0.7,0.1c-0.4,0.1-1.3,0.2-2.2,0.3
			c0.1,0.6,0.3,1.2,0.4,1.9c0.9-0.2,1.8-0.3,2.3-0.4c0.4-0.1,0.6-0.1,0.8-0.2l0.1,0.8c-0.2,0-0.5,0.1-0.8,0.1
			c-0.5,0.1-1.4,0.2-2.3,0.4c0.2,0.9,0.3,1.7,0.4,1.9c0.1,0.3,0.1,0.6,0.2,0.9l-0.9,0.2c0-0.3-0.1-0.6-0.1-0.9
			C294.9,353.8,294.7,353.1,294.5,352.2z"/>
		<path class="st10" d="M305.3,350c0,0.1-0.1,0.2-0.1,0.3c-0.1,0.6-0.3,2.5-0.5,3.4h0.9c0.2,0,0.5,0,0.7,0v0.8c-0.2,0-0.5,0-0.7,0
			h-5.1c-0.3,0-0.5,0-0.8,0v-0.8c0.2,0,0.5,0,0.8,0h3.4c0.1-0.8,0.4-2.6,0.4-3.1h-3c-0.3,0-0.5,0-0.7,0v-0.8c0.2,0,0.5,0.1,0.7,0.1
			h2.8c0.1,0,0.4,0,0.5-0.1L305.3,350z"/>
		<path class="st10" d="M314.1,347.7c-0.1,0.2-0.2,0.5-0.3,0.7c-0.3,0.8-0.8,1.9-1.4,2.8c0.8,0.7,1.6,1.4,2.3,2.1l-0.6,0.6
			c-0.7-0.8-1.4-1.5-2.2-2.2c-0.9,1.1-2,2.2-3.7,3l-0.6-0.6c1.6-0.8,2.8-1.8,3.7-2.9c-0.7-0.6-1.7-1.3-2.6-1.9l0.5-0.6
			c0.8,0.5,1.9,1.3,2.6,1.9c0.6-0.9,1-1.8,1.3-2.6c0.1-0.2,0.1-0.5,0.2-0.7L314.1,347.7z"/>
		<path class="st10" d="M316,353.9c1.6-0.2,2.9-0.8,3.7-1.4c1.4-0.9,2.6-2.3,3.1-3.4l0.4,0.8c-0.6,1.2-1.7,2.4-3.1,3.3
			c-0.9,0.6-2.1,1.2-3.7,1.5L316,353.9z M316.8,347.6c0.7,0.4,1.9,1.4,2.4,1.9l-0.6,0.6c-0.5-0.5-1.6-1.5-2.3-2L316.8,347.6z"/>
		<path class="st10" d="M325.2,354.8c0-0.3,0.1-0.8,0.1-1.1v-5.5c0-0.3,0-0.7-0.1-1h0.9c0,0.3-0.1,0.7-0.1,1v1.5c1.2,0.4,3,1,4,1.5
			l-0.3,0.8c-1-0.6-2.6-1.2-3.7-1.5c0,1.4,0,2.8,0,3.1c0,0.3,0,0.8,0.1,1.1H325.2z"/>
	</g>
</g>
<g transform="translate(-0.5 -0.5)" class="st2">
	<g class="st2">
		<path class="st10" d="M285.8,375.7c0.2,0,0.5,0,0.7,0c0.4,0,2.3-0.1,2.9-0.2c0.2,0,0.4-0.1,0.5-0.1l0.5,0.5
			c-0.1,0.1-0.4,0.2-0.5,0.3c-0.7,0.6-2.1,1.7-2.8,2.3c1.4-0.2,3.1-0.3,4.5-0.3v0.7c-0.9,0-1.8,0-2.4,0c-0.9,0.1-1.8,0.9-1.8,1.8
			c0,0.9,0.8,1.3,1.6,1.4c0.6,0.1,1,0.1,1.3,0l-0.2,0.8c-2.3,0.1-3.5-0.6-3.5-2.1c0-0.8,0.6-1.5,1.1-1.8c-1,0.1-2.2,0.2-3.4,0.4
			l-0.1-0.7c0.5-0.1,1.1-0.1,1.6-0.2c1-0.7,2.5-2,3.1-2.5c-0.4,0-2.1,0.1-2.5,0.1c-0.2,0-0.5,0-0.7,0.1L285.8,375.7z"/>
		<path class="st10" d="M296.5,382.3c0.3,0,0.6-0.1,0.8-0.1c1.2-0.3,2.4-1.2,2.4-2.8c0-1.4-0.9-2.6-2.5-2.7
			c-0.1,0.9-0.3,1.8-0.6,2.7c-0.6,1.9-1.3,2.9-2.2,2.9c-0.8,0-1.7-1-1.7-2.5c0-2,1.8-3.8,4.1-3.8c2.2,0,3.6,1.5,3.6,3.4
			c0,2-1.3,3.3-3.5,3.6L296.5,382.3z M295.9,379.2c0.2-0.8,0.4-1.7,0.5-2.5c-1.8,0.2-2.9,1.8-2.9,3c0,1.2,0.5,1.7,1,1.7
			C294.9,381.4,295.4,380.8,295.9,379.2z"/>
		<path class="st10" d="M304.3,375.1c-0.3,0.7-0.6,1.3-0.9,2v6.3h-0.7v-5.3c-0.3,0.4-0.6,0.8-0.9,1.1c-0.1-0.2-0.3-0.5-0.4-0.7
			c0.9-0.9,1.8-2.3,2.3-3.7L304.3,375.1z M308.8,382.6c0.6,0,0.7-0.3,0.7-1.4c0.2,0.1,0.4,0.2,0.6,0.3c-0.1,1.3-0.3,1.7-1.4,1.7
			h-2.4c-1.1,0-1.4-0.3-1.4-1.3v-3l-0.9,0.4l-0.3-0.6l1.2-0.5v-2.5h0.7v2.2l1.4-0.5v-2.6h0.7v2.3l1.5-0.6l0.1-0.1l0.1-0.1l0.5,0.2
			l0,0.1c0,1.7,0,3-0.1,3.4c-0.1,0.4-0.3,0.6-0.6,0.7c-0.3,0.1-0.7,0.1-0.9,0.1c0-0.2-0.1-0.5-0.2-0.7c0.3,0,0.6,0,0.7,0
			c0.2,0,0.3,0,0.3-0.3c0.1-0.3,0.1-1.2,0.1-2.7l-1.5,0.6v3.4H307v-3.2l-1.4,0.5v3.3c0,0.5,0.1,0.7,0.8,0.7H308.8z"/>
		<path class="st10" d="M314.9,382.3c0.3,0,0.6-0.1,0.8-0.1c1.2-0.3,2.4-1.2,2.4-2.8c0-1.4-0.9-2.6-2.5-2.7
			c-0.1,0.9-0.3,1.8-0.6,2.7c-0.6,1.9-1.3,2.9-2.2,2.9c-0.8,0-1.7-1-1.7-2.5c0-2,1.8-3.8,4.1-3.8c2.2,0,3.6,1.5,3.6,3.4
			c0,2-1.3,3.3-3.5,3.6L314.9,382.3z M314.3,379.2c0.2-0.8,0.4-1.7,0.5-2.5c-1.8,0.2-2.9,1.8-2.9,3c0,1.2,0.5,1.7,1,1.7
			C313.4,381.4,313.8,380.8,314.3,379.2z"/>
		<path class="st10" d="M321.3,379.8c0.4-1,0.8-2.4,0.9-3.5l0.8,0.2c-0.1,0.2-0.1,0.5-0.2,0.7c-0.1,0.6-0.5,2-0.9,2.9
			c-0.3,0.9-0.9,1.8-1.4,2.6l-0.8-0.3C320.5,381.6,321,380.6,321.3,379.8z M325.9,379.5c-0.4-1-0.9-2.3-1.4-3l0.8-0.3
			c0.4,0.7,1,2,1.4,3c0.4,0.9,0.9,2.4,1.1,3.2l-0.8,0.3C326.8,381.8,326.3,380.5,325.9,379.5z M326.2,376.1c0-0.6,0.5-1.1,1-1.1
			c0.6,0,1,0.5,1,1.1s-0.5,1-1,1C326.7,377.2,326.2,376.7,326.2,376.1z M326.6,376.1c0,0.3,0.3,0.6,0.6,0.6c0.3,0,0.6-0.3,0.6-0.6
			c0-0.3-0.3-0.6-0.6-0.6C326.9,375.5,326.6,375.8,326.6,376.1z"/>
		<path class="st10" d="M334,380.7c-0.8,0.9-2,1.8-3.6,2.4l-0.7-0.6c1.6-0.5,2.8-1.3,3.6-2.3c-0.7-0.5-1.4-1-2-1.3l0.5-0.5
			c0.6,0.4,1.3,0.8,2,1.3c0.6-0.8,1.1-1.8,1.3-2.6H332c-0.6,0.8-1.4,1.8-2.5,2.5l-0.6-0.5c1.6-1,2.6-2.4,3-3.3
			c0.1-0.2,0.2-0.5,0.3-0.7l0.9,0.3c-0.2,0.2-0.3,0.6-0.4,0.7c-0.1,0.1-0.1,0.2-0.2,0.3h2.5c0.3,0,0.5,0,0.6-0.1l0.6,0.4
			c-0.1,0.1-0.2,0.4-0.2,0.5c-0.2,0.9-0.7,2-1.5,2.9c0.4,0.3,0.8,0.6,1.1,0.8l-0.6,0.6C334.7,381.3,334.3,381,334,380.7z"/>
		<path class="st10" d="M337.5,378.6c0.3,0,0.8,0,1.3,0h5.1c0.5,0,0.8,0,1,0v0.9c-0.2,0-0.6,0-1,0h-5.1c-0.5,0-1,0-1.3,0V378.6z"/>
		<path class="st10" d="M346.2,382.1c1.6-0.2,2.9-0.8,3.7-1.4c1.4-0.9,2.6-2.3,3.1-3.4l0.5,0.8c-0.6,1.2-1.7,2.4-3.1,3.3
			c-0.9,0.6-2.1,1.2-3.7,1.5L346.2,382.1z M347,375.8c0.7,0.4,1.9,1.4,2.4,1.9l-0.6,0.6c-0.5-0.5-1.6-1.5-2.3-2L347,375.8z"/>
	</g>
</g>
<path class="st7" d="M544.8,106.1v363.6c0,0,0,12.1,7.6,12.1c7.6,0,17.6,0,17.6,0"/>
<path class="st7" d="M544.8,140.9c0,0-2.4,14.7,9.4,14.4h6.5h9.8"/>
<polyline class="st7" points="612,171.2 612,302.6 626.7,302.6 "/>
<line class="st7" x1="612" y1="199.8" x2="622.1" y2="199.8"/>
<polyline class="st7" points="651.6,209.2 651.6,239.2 666.5,239.2 "/>
<polyline class="st7" points="694.8,247.8 694.8,278.6 709.2,278.6 "/>
<polyline class="st7" points="651.6,312.3 651.6,341.5 662.7,341.5 "/>
<polyline class="st7" points="694.8,351.4 694.8,444.4 707.3,444.4 "/>
<line class="st7" x1="694.8" y1="380.4" x2="707.8" y2="380.4"/>
<polyline class="st7" points="738,390.3 738,420.2 752.8,420.2 "/>
<g class="st2">
	<rect x="462.7" y="55.5" class="st3" width="164.2" height="54.4"/>
	<path class="st4" d="M624.4,58v49.4H465.2V58H624.4 M629.4,53h-5H465.2h-5v5v49.4v5h5h159.2h5v-5V58V53L629.4,53z"/>
</g>
<g class="st2">
	<rect x="620.7" y="190" class="st8" width="61.7" height="19.6"/>
	<path class="st3" d="M681.2,191.2v17.1H622v-17.1H681.2 M683.7,188.7h-2.5H622h-2.5v2.5v17.1v2.5h2.5h59.2h2.5v-2.5v-17.1V188.7
		L683.7,188.7z"/>
</g>
<g class="st2">
	<rect x="661.5" y="229.4" class="st8" width="72.1" height="19.6"/>
	<path class="st3" d="M732.4,230.6v17.1h-69.6v-17.1H732.4 M734.9,228.1h-2.5h-69.6h-2.5v2.5v17.1v2.5h2.5h69.6h2.5v-2.5v-17.1
		V228.1L734.9,228.1z"/>
</g>
<g class="st2">
	<rect x="704.7" y="268.8" class="st8" width="84.9" height="19.6"/>
	<path class="st3" d="M788.4,270v17.1H706V270H788.4 M790.9,267.5h-2.5H706h-2.5v2.5v17.1v2.5h2.5h82.4h2.5v-2.5V270V267.5
		L790.9,267.5z"/>
</g>
<g class="st2">
	<rect x="620.9" y="292.8" class="st8" width="63.5" height="19.6"/>
	<path class="st3" d="M683.2,294v17.1h-61V294H683.2 M685.7,291.5h-2.5h-61h-2.5v2.5v17.1v2.5h2.5h61h2.5v-2.5V294V291.5
		L685.7,291.5z"/>
</g>
<g class="st2">
	<rect x="660.9" y="331.7" class="st8" width="67.2" height="19.6"/>
	<path class="st3" d="M726.8,332.9v17.1h-64.7v-17.1H726.8 M729.3,330.4h-2.5h-64.7h-2.5v2.5v17.1v2.5h2.5h64.7h2.5v-2.5v-17.1
		V330.4L729.3,330.4z"/>
</g>
<g class="st2">
	<rect x="704.4" y="370.6" class="st11" width="67.2" height="19.6"/>
	<path class="st3" d="M770.3,371.9V389h-64.7v-17.1H770.3 M772.8,369.4h-2.5h-64.7h-2.5v2.5V389v2.5h2.5h64.7h2.5V389v-17.1V369.4
		L772.8,369.4z"/>
</g>
<g class="st2">
	<rect x="748.5" y="410.4" class="st11" width="107.9" height="19.6"/>
	<path class="st3" d="M855.2,411.6v17.1H749.7v-17.1H855.2 M857.7,409.1h-2.5H749.7h-2.5v2.5v17.1v2.5h2.5h105.4h2.5v-2.5v-17.1
		V409.1L857.7,409.1z"/>
</g>
<g class="st2">
	<rect x="704.4" y="434.6" class="st11" width="50.9" height="19.6"/>
	<path class="st3" d="M754,435.9V453h-48.4v-17.1H754 M756.5,433.4H754h-48.4h-2.5v2.5V453v2.5h2.5H754h2.5V453v-17.1V433.4
		L756.5,433.4z"/>
</g>
<g transform="translate(-0.5 -0.5)">
	<g class="st2">
		<path d="M493,89.8h-2.7l4.4-12.2h2.9l4.3,12.2h-2.8l-0.8-2.5h-4.5L493,89.8z M494.5,85.2h3.1l-1.5-4.8h0L494.5,85.2z"/>
		<path d="M512.5,79.7H506v2.6h6v2.2h-6v3.2h6.8v2.2h-9.3V77.6h9V79.7z"/>
		<path d="M526.6,89.8h-2.4V79.6h0l-2.3,10.2h-2.5l-2.2-10.2h0v10.2h-2.4V77.6h3.7l2.2,9.6h0l2.2-9.6h3.7V89.8z"/>
		<path d="M535.5,89.8h-2.7l4.4-12.2h2.9l4.3,12.2h-2.8l-0.8-2.5h-4.5L535.5,89.8z M537.1,85.2h3.1l-1.5-4.8h0L537.1,85.2z"/>
		<path d="M547.9,86c0,0.7,0.4,2,2.6,2c1.2,0,2.6-0.3,2.6-1.6c0-1-0.9-1.2-2.2-1.5l-1.3-0.3c-2-0.5-3.9-0.9-3.9-3.6
			c0-1.4,0.7-3.8,4.7-3.8c3.7,0,4.8,2.5,4.8,4h-2.5c-0.1-0.5-0.3-1.8-2.5-1.8c-1,0-2.1,0.4-2.1,1.5c0,1,0.8,1.2,1.3,1.3l3,0.7
			c1.7,0.4,3.2,1.1,3.2,3.3c0,3.7-3.7,4-4.8,4c-4.5,0-5.2-2.6-5.2-4.1H547.9z"/>
		<path d="M559.3,86c0,0.7,0.4,2,2.6,2c1.2,0,2.6-0.3,2.6-1.6c0-1-0.9-1.2-2.2-1.5l-1.3-0.3c-2-0.5-3.9-0.9-3.9-3.6
			c0-1.4,0.7-3.8,4.7-3.8c3.7,0,4.8,2.5,4.8,4H564c-0.1-0.5-0.3-1.8-2.5-1.8c-1,0-2.1,0.4-2.1,1.5c0,1,0.8,1.2,1.3,1.3l3,0.7
			c1.7,0.4,3.2,1.1,3.2,3.3c0,3.7-3.7,4-4.8,4c-4.5,0-5.2-2.6-5.2-4.1H559.3z"/>
		<path d="M577.8,79.7h-6.5v2.6h6v2.2h-6v3.2h6.8v2.2h-9.3V77.6h9V79.7z"/>
		<path d="M585.4,89.8h-2.6V79.7h-3.7v-2.2h9.9v2.2h-3.7V89.8z"/>
		<path d="M592.4,86c0,0.7,0.4,2,2.6,2c1.2,0,2.6-0.3,2.6-1.6c0-1-0.9-1.2-2.2-1.5l-1.3-0.3c-2-0.5-3.9-0.9-3.9-3.6
			c0-1.4,0.7-3.8,4.7-3.8c3.7,0,4.8,2.5,4.8,4h-2.5c-0.1-0.5-0.3-1.8-2.5-1.8c-1,0-2.1,0.4-2.1,1.5c0,1,0.8,1.2,1.3,1.3l3,0.7
			c1.7,0.4,3.2,1.1,3.2,3.3c0,3.7-3.7,4-4.8,4c-4.5,0-5.2-2.6-5.2-4.1H592.4z"/>
	</g>
</g>
<g>
	<rect x="565.1" y="465.7" class="st0" width="105.7" height="32.3"/>
	<path class="st4" d="M669.8,466.7v30.3H566.1v-30.3H669.8 M671.8,464.7h-2H566.1h-2v2v30.3v2h2h103.7h2v-2v-30.3V464.7L671.8,464.7
		z"/>
</g>
<g transform="translate(-0.5 -0.5)" class="st2">
	<g class="st2">
		<path class="st9" d="M589.8,487.5C589.8,487.5,589.8,487.5,589.8,487.5l-0.9,0.1c-0.1,0-0.1,0-0.1-0.1l3-10.7c0-0.1,0-0.1,0.1-0.1
			h0.8c0.1,0,0.1,0,0.1,0.1L589.8,487.5z"/>
		<path class="st9" d="M598.9,480.8v7.1h-0.9v-11.3h4.7v4.2H598.9z M598.9,477.4v1h2.8v-1H598.9z M601.7,480.1V479h-2.8v1.1H601.7z
			 M608.6,486.8c0,0.5-0.1,0.8-0.5,1c-0.3,0.2-0.9,0.2-1.7,0.2c0-0.2-0.1-0.6-0.3-0.9c-0.1,0.1-0.1,0.2-0.1,0.2
			c-1.3-0.3-2.2-1-2.8-2c-0.4,0.7-1.2,1.5-2.9,2c-0.1-0.2-0.4-0.5-0.6-0.7c1.8-0.5,2.5-1.2,2.8-1.9h-2.7V484h2.8v-0.1V483h-2.6v-0.7
			h1.4c-0.1-0.3-0.4-0.8-0.6-1.1l0.8-0.2c0.3,0.4,0.6,0.9,0.7,1.3h1.7c0.2-0.4,0.5-0.9,0.6-1.3l0.9,0.3c-0.2,0.4-0.5,0.7-0.7,1h1.5
			v0.7h-2.8v0.9v0.1h3.1v0.7h-2.9c0.5,0.9,1.5,1.6,2.8,1.8c-0.1,0.1-0.3,0.3-0.4,0.4c0.5,0,1.1,0,1.2,0c0.2,0,0.2-0.1,0.2-0.2v-6
			h-3.9v-4.2h4.8V486.8z M604.7,477.4v1h3v-1H604.7z M607.7,480.1V479h-3v1.1H607.7z"/>
		<path class="st9" d="M621.4,479.4c-0.3,2.1-0.8,3.8-1.6,5.2c0.6,1.1,1.5,2,2.5,2.5c-0.2,0.2-0.5,0.6-0.7,0.8
			c-1-0.6-1.8-1.4-2.4-2.5c-0.8,1-1.7,1.8-3,2.5c-0.1-0.2-0.2-0.5-0.4-0.7l-0.3,0.3c-0.4-0.3-0.9-0.7-1.5-1
			c-0.8,0.6-1.8,1.1-3.2,1.4c-0.1-0.3-0.3-0.6-0.4-0.8c1.2-0.2,2.1-0.5,2.8-1c-0.4-0.2-0.8-0.4-1.3-0.6l-0.2,0.4l-0.8-0.3
			c0.3-0.5,0.6-1.2,1-1.8h-1.5V483h1.9c0.2-0.4,0.4-0.8,0.5-1.1l0.3,0.1v-1.8c-0.7,0.8-1.5,1.5-2.3,1.9c-0.1-0.2-0.4-0.6-0.5-0.7
			c0.9-0.4,1.9-1.2,2.5-2.1h-2.4v-0.8h2.7v-2.4h0.9v2.4h2.6v0.8H614v0.1c0.6,0.3,2,1.2,2.3,1.5l-0.5,0.7c-0.3-0.3-1.2-0.9-1.8-1.4
			v1.9h-0.6l0.2,0.1c-0.1,0.3-0.3,0.6-0.4,0.9h3.5v0.8h-1.1c-0.2,0.9-0.5,1.6-0.9,2.2c0.6,0.3,1.1,0.6,1.5,0.9
			c1.1-0.6,2-1.4,2.6-2.4c-0.5-1.1-0.9-2.3-1.2-3.6c-0.3,0.6-0.6,1.2-0.9,1.6c-0.1-0.2-0.6-0.5-0.8-0.7c1.1-1.4,1.8-3.5,2.1-5.8
			l1,0.1c-0.1,0.8-0.3,1.5-0.5,2.2h3.8v0.9H621.4z M611.7,478.4c-0.1-0.5-0.5-1.2-0.8-1.7l0.7-0.3c0.4,0.5,0.7,1.2,0.8,1.7
			L611.7,478.4z M612.8,483.8c-0.2,0.4-0.4,0.7-0.5,1.1c0.5,0.2,1,0.4,1.5,0.7c0.4-0.5,0.6-1,0.8-1.7H612.8z M616.3,476.7
			c-0.4,0.6-0.8,1.2-1.2,1.7l-0.7-0.3c0.3-0.5,0.8-1.2,1-1.7L616.3,476.7z M618.1,479.4c0.2,1.5,0.6,2.9,1.1,4.1
			c0.6-1.2,0.9-2.5,1.1-4.1L618.1,479.4L618.1,479.4z"/>
		<path class="st9" d="M627.4,486.9c-0.1,0-0.1,0-0.1-0.1v-9.4c0-0.1,0-0.1,0.1-0.1h1.3c0.1,0,0.1,0,0.1,0.1c1.3,2.2,4.2,7,4.8,8.2
			h0c0-0.4,0-1,0-2.2v-5.9c0-0.1,0-0.1,0.1-0.1h0.9c0.1,0,0.1,0,0.1,0.1v9.4c0,0.1,0,0.1-0.1,0.1h-1.2c-0.1,0-0.1,0-0.2-0.1
			c-0.6-1.2-4.4-7.4-4.9-8.4h0c0,0.5,0.1,1.3,0.1,2.5v5.9c0,0.1,0,0.1-0.1,0.1H627.4z"/>
		<path class="st9" d="M640.3,479.5C640.3,479.5,640.4,479.5,640.3,479.5l0.1,3.2h3c0.1,0,0.1,0,0.1,0.1v0.7c0,0.1,0,0.1-0.1,0.1h-3
			v3.2c0,0.1,0,0.1-0.1,0.1h-0.7c-0.1,0-0.1,0-0.1-0.1v-3.2h-3.1c-0.1,0-0.1,0-0.1-0.1v-0.7c0-0.1,0.1-0.1,0.1-0.1h3.1v-3.2
			c0,0,0-0.1,0.1-0.1H640.3z"/>
		<path class="st9" d="M646.1,486.9C646,486.9,646,486.9,646.1,486.9l-0.1-8.1c-0.5,0.3-1.3,0.6-1.8,0.7c-0.1,0-0.1,0-0.1-0.1v-0.8
			c0-0.1,0-0.1,0.1-0.1c0.7-0.2,1.5-0.6,2-0.9c0.1-0.1,0.1-0.1,0.2-0.1h0.6c0.1,0,0.1,0,0.1,0.1v9.2c0,0.1,0,0.1-0.1,0.1H646.1z"/>
	</g>
</g>
<g>
	<rect x="565.1" y="139.2" class="st0" width="93.8" height="32.3"/>
	<path class="st4" d="M657.9,140.2v30.3h-91.8v-30.3H657.9 M659.9,138.2h-2h-91.8h-2v2v30.3v2h2h91.8h2v-2v-30.3V138.2L659.9,138.2z
		"/>
</g>
<g transform="translate(-0.5 -0.5)" class="st2">
	<g class="st2">
		<path class="st9" d="M589.8,160.7C589.7,160.8,589.7,160.8,589.8,160.7l-0.9,0.1c-0.1,0-0.1,0-0.1-0.1l3-10.7c0-0.1,0-0.1,0.1-0.1
			h0.8c0.1,0,0.1,0,0.1,0.1L589.8,160.7z"/>
		<path class="st9" d="M598.9,154v7.1h-0.9v-11.3h4.7v4.2H598.9z M598.9,150.6v1h2.8v-1H598.9z M601.7,153.3v-1.1h-2.8v1.1H601.7z
			 M608.6,160c0,0.5-0.1,0.8-0.5,1c-0.3,0.2-0.9,0.2-1.7,0.2c0-0.2-0.1-0.6-0.3-0.9c-0.1,0.1-0.1,0.2-0.1,0.2c-1.3-0.3-2.2-1-2.8-2
			c-0.4,0.7-1.2,1.5-2.9,2c-0.1-0.2-0.4-0.5-0.6-0.6c1.8-0.5,2.5-1.2,2.8-1.9h-2.7v-0.7h2.8v-0.1v-0.9h-2.6v-0.7h1.4
			c-0.1-0.3-0.4-0.8-0.6-1.1l0.8-0.2c0.3,0.4,0.6,0.9,0.7,1.3h1.7c0.2-0.4,0.5-0.9,0.6-1.3l0.9,0.3c-0.2,0.4-0.5,0.7-0.7,1h1.5v0.7
			h-2.8v0.9v0.1h3.1v0.7h-2.9c0.5,0.9,1.5,1.6,2.8,1.8c-0.1,0.1-0.3,0.3-0.4,0.4c0.5,0,1.1,0,1.2,0c0.2,0,0.2-0.1,0.2-0.2v-6h-3.9
			v-4.2h4.8V160z M604.7,150.6v1h3v-1H604.7z M607.6,153.3v-1.1h-3v1.1H607.6z"/>
		<path class="st9" d="M621.4,152.6c-0.3,2.1-0.8,3.8-1.6,5.2c0.7,1.1,1.5,2,2.5,2.5c-0.2,0.2-0.5,0.6-0.7,0.8
			c-1-0.6-1.8-1.4-2.4-2.5c-0.8,1-1.7,1.8-3,2.5c-0.1-0.2-0.2-0.5-0.4-0.7l-0.3,0.3c-0.4-0.3-0.9-0.7-1.5-1
			c-0.8,0.6-1.8,1.1-3.2,1.4c-0.1-0.3-0.3-0.6-0.4-0.8c1.2-0.2,2.1-0.5,2.8-1c-0.4-0.2-0.8-0.4-1.3-0.6l-0.2,0.4l-0.8-0.3
			c0.3-0.5,0.6-1.2,1-1.8h-1.5v-0.8h1.9c0.2-0.4,0.4-0.8,0.5-1.1l0.3,0.1v-1.8c-0.6,0.8-1.5,1.5-2.3,1.9c-0.1-0.2-0.4-0.6-0.5-0.7
			c0.9-0.4,1.9-1.2,2.5-2.1h-2.4v-0.8h2.7v-2.4h0.9v2.4h2.6v0.8h-2.6v0.1c0.6,0.3,2,1.2,2.3,1.5l-0.5,0.7c-0.3-0.3-1.2-0.9-1.8-1.4
			v1.9h-0.6l0.2,0.1c-0.1,0.3-0.3,0.6-0.4,0.9h3.5v0.8h-1.1c-0.2,0.9-0.5,1.6-0.9,2.2c0.6,0.3,1.1,0.6,1.5,0.9
			c1.1-0.6,2-1.4,2.6-2.4c-0.5-1.1-0.9-2.3-1.2-3.6c-0.3,0.6-0.6,1.2-0.9,1.6c-0.1-0.2-0.6-0.5-0.8-0.7c1.1-1.4,1.8-3.5,2.1-5.8
			l1,0.1c-0.1,0.8-0.3,1.5-0.5,2.2h3.8v0.9H621.4z M611.6,151.6c-0.1-0.5-0.5-1.2-0.8-1.7l0.7-0.3c0.4,0.5,0.7,1.2,0.8,1.7
			L611.6,151.6z M612.7,157c-0.2,0.4-0.4,0.7-0.5,1.1c0.5,0.2,1,0.4,1.5,0.7c0.4-0.5,0.6-1,0.8-1.7H612.7z M616.3,149.9
			c-0.4,0.6-0.8,1.2-1.2,1.7l-0.6-0.3c0.3-0.5,0.8-1.2,1-1.7L616.3,149.9z M618.1,152.6c0.2,1.5,0.6,2.9,1.1,4.1
			c0.6-1.2,0.9-2.5,1.1-4.1L618.1,152.6L618.1,152.6z"/>
		<path class="st9" d="M623.3,157C623.3,157,623.2,157,623.3,157l-0.1-0.9c0-0.1,0-0.1,0.1-0.1h3.2c0.1,0,0.1,0,0.1,0.1v0.8
			c0,0.1,0,0.1-0.1,0.1H623.3z"/>
		<path class="st9" d="M628.3,160.2c-0.1,0-0.1,0-0.1-0.1v-9.4c0-0.1,0-0.1,0.1-0.1h1.3c0.1,0,0.1,0,0.1,0.1c1.3,2.2,4.2,7,4.8,8.2
			h0c0-0.4,0-1,0-2.2v-5.9c0-0.1,0-0.1,0.1-0.1h0.9c0.1,0,0.1,0,0.1,0.1v9.4c0,0.1,0,0.1-0.1,0.1h-1.2c-0.1,0-0.1,0-0.2-0.1
			c-0.6-1.2-4.4-7.4-4.9-8.4h0c0,0.5,0.1,1.3,0.1,2.5v5.9c0,0.1,0,0.1-0.1,0.1H628.3z"/>
	</g>
</g>
<g>
	<g>
		<path class="st0" d="M612,182.6c-2.6,0-4.7-2.1-4.7-4.7c0-2.6,2.1-4.7,4.7-4.7s4.7,2.1,4.7,4.7C616.7,180.5,614.6,182.6,612,182.6
			z"/>
		<path class="st4" d="M612,173.6c2.3,0,4.2,1.9,4.2,4.2c0,2.3-1.9,4.2-4.2,4.2s-4.2-1.9-4.2-4.2C607.8,175.5,609.7,173.6,612,173.6
			 M612,172.6c-2.9,0-5.2,2.3-5.2,5.2s2.3,5.2,5.2,5.2c2.9,0,5.2-2.3,5.2-5.2S614.9,172.6,612,172.6L612,172.6z"/>
	</g>
	<g transform="translate(-0.5 -0.5)">
		<g class="st2">
			<path d="M614,178.9H611v-1.1h2.9V178.9z"/>
		</g>
	</g>
</g>
<g>
	<g>
		<path class="st0" d="M651.6,221.5c-2.6,0-4.7-2.1-4.7-4.7c0-2.6,2.1-4.7,4.7-4.7s4.7,2.1,4.7,4.7
			C656.3,219.4,654.2,221.5,651.6,221.5z"/>
		<path class="st4" d="M651.6,212.6c2.3,0,4.2,1.9,4.2,4.2c0,2.3-1.9,4.2-4.2,4.2c-2.3,0-4.2-1.9-4.2-4.2
			C647.3,214.4,649.2,212.6,651.6,212.6 M651.6,211.6c-2.9,0-5.2,2.3-5.2,5.2s2.3,5.2,5.2,5.2c2.9,0,5.2-2.3,5.2-5.2
			S654.5,211.6,651.6,211.6L651.6,211.6z"/>
	</g>
	<g transform="translate(-0.5 -0.5)">
		<g class="st2">
			<path d="M653.5,217.8h-2.9v-1.1h2.9V217.8z"/>
		</g>
	</g>
</g>
<g>
	<g>
		<path class="st0" d="M694.8,260.8c-2.6,0-4.7-2.1-4.7-4.7c0-2.6,2.1-4.7,4.7-4.7s4.7,2.1,4.7,4.7
			C699.5,258.7,697.4,260.8,694.8,260.8z"/>
		<path class="st4" d="M694.8,251.8c2.3,0,4.2,1.9,4.2,4.2c0,2.3-1.9,4.2-4.2,4.2s-4.2-1.9-4.2-4.2
			C690.6,253.7,692.5,251.8,694.8,251.8 M694.8,250.8c-2.9,0-5.2,2.3-5.2,5.2s2.3,5.2,5.2,5.2c2.9,0,5.2-2.3,5.2-5.2
			S697.7,250.8,694.8,250.8L694.8,250.8z"/>
	</g>
	<g transform="translate(-0.5 -0.5)">
		<g class="st2">
			<path d="M696.8,257.1h-2.9V256h2.9V257.1z"/>
		</g>
	</g>
</g>
<g>
	<g>
		<path class="st0" d="M651.3,324.2c-2.6,0-4.7-2.1-4.7-4.7c0-2.6,2.1-4.7,4.7-4.7s4.7,2.1,4.7,4.7C656,322,653.9,324.2,651.3,324.2
			z"/>
		<path class="st4" d="M651.3,315.2c2.3,0,4.2,1.9,4.2,4.2c0,2.3-1.9,4.2-4.2,4.2s-4.2-1.9-4.2-4.2
			C647,317.1,648.9,315.2,651.3,315.2 M651.3,314.2c-2.9,0-5.2,2.3-5.2,5.2s2.3,5.2,5.2,5.2c2.9,0,5.2-2.3,5.2-5.2
			S654.1,314.2,651.3,314.2L651.3,314.2z"/>
	</g>
	<g transform="translate(-0.5 -0.5)">
		<g class="st2">
			<path d="M653.2,320.5h-2.9v-1.1h2.9V320.5z"/>
		</g>
	</g>
</g>
<g>
	<g>
		<path class="st0" d="M694.8,363c-2.6,0-4.7-2.1-4.7-4.7c0-2.6,2.1-4.7,4.7-4.7s4.7,2.1,4.7,4.7C699.5,360.9,697.4,363,694.8,363z"
			/>
		<path class="st4" d="M694.8,354c2.3,0,4.2,1.9,4.2,4.2c0,2.3-1.9,4.2-4.2,4.2s-4.2-1.9-4.2-4.2C690.6,355.9,692.5,354,694.8,354
			 M694.8,353c-2.9,0-5.2,2.3-5.2,5.2s2.3,5.2,5.2,5.2c2.9,0,5.2-2.3,5.2-5.2S697.7,353,694.8,353L694.8,353z"/>
	</g>
	<g transform="translate(-0.5 -0.5)">
		<g class="st2">
			<path d="M696.8,359.3h-2.9v-1.1h2.9V359.3z"/>
		</g>
	</g>
</g>
<g>
	<g>
		<path class="st0" d="M738,402.6c-2.6,0-4.7-2.1-4.7-4.7c0-2.6,2.1-4.7,4.7-4.7s4.7,2.1,4.7,4.7C742.7,400.5,740.6,402.6,738,402.6
			z"/>
		<path class="st4" d="M738,393.7c2.3,0,4.2,1.9,4.2,4.2c0,2.3-1.9,4.2-4.2,4.2s-4.2-1.9-4.2-4.2C733.7,395.6,735.6,393.7,738,393.7
			 M738,392.7c-2.9,0-5.2,2.3-5.2,5.2s2.3,5.2,5.2,5.2c2.9,0,5.2-2.3,5.2-5.2S740.9,392.7,738,392.7L738,392.7z"/>
	</g>
	<g transform="translate(-0.5 -0.5)">
		<g class="st2">
			<path d="M739.9,398.9H737v-1.1h2.9V398.9z"/>
		</g>
	</g>
</g>
<g transform="translate(-0.5 -0.5)" class="st2">
	<g class="st2">
		<path class="st10" d="M628.7,203.7C628.7,203.7,628.6,203.7,628.7,203.7l-0.6,0c0,0-0.1,0,0-0.1l2.1-7.7c0,0,0,0,0.1,0h0.6
			c0,0,0.1,0,0,0.1L628.7,203.7z"/>
		<path class="st10" d="M640.9,197.5c0,0,0,0.1,0,0.1c-0.2,1-0.7,2.5-1.4,3.5c-0.9,1.1-2,2-3.7,2.5l-0.6-0.7
			c1.8-0.4,2.9-1.2,3.7-2.2c0.7-0.9,1.1-2.2,1.2-3.1h-4.8c-0.4,0-0.7,0-0.9,0v-0.8c0.3,0,0.6,0.1,0.9,0.1h4.7c0.1,0,0.2,0,0.3,0
			c0-0.1,0-0.2,0-0.3c0-0.6,0.5-1.1,1-1.1c0.6,0,1.1,0.5,1.1,1.1c0,0.6-0.5,1-1.1,1C641.2,197.6,641,197.6,640.9,197.5z
			 M640.7,196.6c0,0.3,0.3,0.6,0.6,0.6c0.3,0,0.6-0.3,0.6-0.6c0-0.3-0.3-0.6-0.6-0.6C640.9,195.9,640.7,196.2,640.7,196.6z"/>
		<path class="st10" d="M643.5,196.9c0.4,0,0.6,0,0.8,0h5c0.2,0,0.5,0,0.8,0c0,0.2,0,0.5,0,0.7v4.6c0,0.3,0,1,0,1.1h-0.8
			c0-0.1,0-0.3,0-0.5h-5.1c0,0.2,0,0.5,0,0.5h-0.8c0-0.1,0-0.8,0-1.1v-4.6C643.6,197.4,643.6,197.1,643.5,196.9z M644.3,202.1h5.1
			v-4.5h-5.1V202.1z"/>
		<path class="st10" d="M659.1,197.7c-0.1,0.1-0.2,0.3-0.2,0.5c-0.3,0.9-0.8,2.2-1.7,3.2c-0.9,1-2,1.9-3.7,2.5l-0.7-0.6
			c1.7-0.5,2.9-1.3,3.7-2.4c0.7-0.9,1.3-2.1,1.5-2.9h-3.2c-0.6,0.8-1.3,1.6-2.4,2.3l-0.6-0.5c1.6-1,2.5-2.3,2.9-3.2
			c0.1-0.2,0.2-0.5,0.3-0.8l0.9,0.3c-0.2,0.2-0.3,0.6-0.4,0.7c-0.1,0.1-0.1,0.3-0.2,0.4h2.5c0.3,0,0.5,0,0.6-0.1L659.1,197.7z
			 M658.4,195.8c0.2,0.3,0.6,0.9,0.8,1.3l-0.5,0.2c-0.2-0.4-0.5-0.9-0.8-1.3L658.4,195.8z M659.5,195.4c0.2,0.3,0.6,0.9,0.8,1.3
			l-0.5,0.2c-0.2-0.4-0.5-0.9-0.8-1.3L659.5,195.4z"/>
		<path class="st10" d="M667.5,198.8c0,0.1-0.1,0.2-0.1,0.3c-0.3,0.9-0.7,1.9-1.4,2.7c-1,1.1-2.2,1.6-3.4,2l-0.6-0.7
			c1.3-0.3,2.5-0.9,3.3-1.7c0.6-0.6,0.9-1.4,1.1-2.1h-5c-0.2,0-0.6,0-0.9,0v-0.8c0.3,0,0.7,0.1,0.9,0.1h4.9c0.2,0,0.4,0,0.5-0.1
			L667.5,198.8z M661.4,196.3c0.2,0,0.5,0,0.8,0h3.7c0.3,0,0.6,0,0.9,0v0.8c-0.2,0-0.5,0-0.9,0h-3.7c-0.3,0-0.6,0-0.8,0V196.3z"/>
		<path class="st10" d="M675.4,203.6c-0.1-0.3-0.3-0.8-0.5-1.2c-1.4,0.2-4.6,0.5-5.8,0.6c-0.2,0-0.5,0.1-0.8,0.1l-0.1-0.9
			c0.3,0,0.6,0,0.9,0l0.5,0c0.5-1.3,1.5-4.3,1.7-5.2c0.1-0.4,0.1-0.7,0.2-0.9l0.9,0.2c-0.1,0.2-0.2,0.5-0.3,0.9
			c-0.3,0.9-1.2,3.8-1.7,5c1.4-0.1,3.2-0.3,4.2-0.5c-0.4-0.7-0.8-1.5-1.1-1.9l0.7-0.3c0.7,1,1.7,2.8,2.1,3.8L675.4,203.6z"/>
	</g>
</g>
<g transform="translate(-0.5 -0.5)" class="st2">
	<g class="st2">
		<path class="st10" d="M630.2,306.6C630.2,306.6,630.2,306.6,630.2,306.6l-0.6,0c0,0-0.1,0,0-0.1l2.1-7.7c0,0,0,0,0.1,0h0.6
			c0,0,0.1,0,0,0.1L630.2,306.6z"/>
		<path class="st10" d="M642.5,300.5c0,0,0,0.1,0,0.1c-0.2,1-0.7,2.5-1.4,3.5c-0.9,1.1-2,2-3.7,2.5l-0.6-0.7
			c1.8-0.4,2.9-1.2,3.7-2.2c0.7-0.9,1.1-2.2,1.2-3.1h-4.8c-0.4,0-0.7,0-0.9,0v-0.8c0.3,0,0.6,0.1,0.9,0.1h4.7c0.1,0,0.2,0,0.3,0
			c0-0.1,0-0.2,0-0.3c0-0.6,0.5-1.1,1-1.1c0.6,0,1.1,0.5,1.1,1.1c0,0.6-0.5,1-1.1,1C642.7,300.5,642.6,300.5,642.5,300.5z
			 M642.2,299.5c0,0.3,0.3,0.6,0.6,0.6c0.3,0,0.6-0.3,0.6-0.6c0-0.3-0.3-0.6-0.6-0.6C642.5,298.8,642.2,299.1,642.2,299.5z"/>
		<path class="st10" d="M645.1,299.8c0.4,0,0.6,0,0.8,0h5c0.2,0,0.5,0,0.8,0c0,0.2,0,0.5,0,0.7v4.6c0,0.3,0,1,0,1.1h-0.8
			c0-0.1,0-0.3,0-0.5h-5.1c0,0.2,0,0.5,0,0.5h-0.8c0-0.1,0-0.8,0-1.1v-4.6C645.1,300.3,645.1,300,645.1,299.8z M645.8,305h5.1v-4.5
			h-5.1V305z"/>
		<path class="st10" d="M660.6,300.6c-0.1,0.1-0.2,0.3-0.2,0.5c-0.3,0.9-0.8,2.2-1.7,3.2c-0.9,1-2,1.9-3.7,2.5l-0.7-0.6
			c1.7-0.5,2.9-1.3,3.7-2.4c0.7-0.9,1.3-2.1,1.5-2.9h-3.2c-0.6,0.8-1.3,1.6-2.4,2.3l-0.6-0.5c1.6-1,2.5-2.3,2.9-3.2
			c0.1-0.2,0.2-0.5,0.3-0.8l0.9,0.3c-0.2,0.2-0.3,0.6-0.4,0.7c-0.1,0.1-0.1,0.3-0.2,0.4h2.5c0.3,0,0.5,0,0.6-0.1L660.6,300.6z
			 M660,298.7c0.2,0.3,0.6,0.9,0.8,1.3l-0.5,0.2c-0.2-0.4-0.5-0.9-0.8-1.3L660,298.7z M661,298.3c0.2,0.3,0.6,0.9,0.8,1.3l-0.5,0.2
			c-0.2-0.4-0.5-0.9-0.8-1.3L661,298.3z"/>
		<path class="st10" d="M669,301.7c0,0.1-0.1,0.2-0.1,0.3c-0.3,0.9-0.7,1.9-1.4,2.7c-1,1.1-2.2,1.6-3.4,2l-0.6-0.7
			c1.3-0.3,2.5-0.9,3.3-1.7c0.6-0.6,0.9-1.4,1.1-2.1h-5c-0.2,0-0.6,0-0.9,0v-0.8c0.3,0,0.7,0.1,0.9,0.1h4.9c0.2,0,0.4,0,0.5-0.1
			L669,301.7z M662.9,299.2c0.2,0,0.5,0,0.8,0h3.7c0.3,0,0.6,0,0.9,0v0.8c-0.2,0-0.5,0-0.9,0h-3.7c-0.3,0-0.6,0-0.8,0V299.2z"/>
		<path class="st10" d="M676.9,306.5c-0.1-0.3-0.3-0.8-0.5-1.2c-1.4,0.2-4.6,0.5-5.8,0.6c-0.2,0-0.5,0.1-0.8,0.1l-0.1-0.9
			c0.3,0,0.6,0,0.9,0l0.5,0c0.5-1.3,1.5-4.3,1.7-5.2c0.1-0.4,0.1-0.7,0.2-0.9l0.9,0.2c-0.1,0.2-0.2,0.5-0.3,0.9
			c-0.3,0.9-1.2,3.8-1.7,5c1.4-0.1,3.2-0.3,4.2-0.5c-0.4-0.7-0.8-1.5-1.1-1.9l0.7-0.3c0.7,1,1.7,2.8,2.1,3.8L676.9,306.5z"/>
	</g>
</g>
<g transform="translate(-0.5 -0.5)" class="st2">
	<g class="st2">
		<path class="st10" d="M669.3,243C669.3,243,669.3,243.1,669.3,243l-0.6,0c0,0-0.1,0,0-0.1l2.1-7.7c0,0,0,0,0.1,0h0.6
			c0,0,0.1,0,0,0.1L669.3,243z"/>
		<path class="st10" d="M678.5,240.3c-1.1,0.2-2.1,0.3-2.5,0.4c-0.4,0.1-0.6,0.1-0.8,0.2l-0.2-0.8c0.2,0,0.6,0,0.8-0.1
			c0.5-0.1,1.5-0.2,2.6-0.4c-0.1-0.6-0.3-1.3-0.4-1.9c-0.9,0.1-1.7,0.3-2.1,0.3c-0.3,0-0.5,0.1-0.8,0.2l-0.2-0.8
			c0.2,0,0.5,0,0.8-0.1c0.4,0,1.2-0.2,2.1-0.3c-0.1-0.5-0.2-0.9-0.2-1c0-0.2-0.1-0.4-0.2-0.6l0.8-0.2c0,0.2,0.1,0.4,0.1,0.6
			c0,0.1,0.1,0.5,0.2,1c0.9-0.1,1.8-0.3,2.2-0.4c0.3,0,0.5-0.1,0.7-0.2l0.2,0.8c-0.1,0-0.4,0.1-0.7,0.1c-0.4,0.1-1.3,0.2-2.2,0.3
			c0.1,0.6,0.3,1.2,0.4,1.9c0.9-0.2,1.8-0.3,2.3-0.4c0.4-0.1,0.6-0.1,0.8-0.2l0.1,0.8c-0.2,0-0.5,0.1-0.8,0.1
			c-0.5,0.1-1.4,0.2-2.3,0.4c0.2,0.9,0.3,1.7,0.4,1.9c0.1,0.3,0.1,0.6,0.2,0.9L679,243c0-0.3-0.1-0.6-0.1-0.9
			C678.9,242,678.7,241.2,678.5,240.3z"/>
		<path class="st10" d="M685.9,236.9c0,0.2,0.1,0.4,0.1,0.6c0.1,0.2,0.2,0.6,0.3,1.1c1.3-0.3,2.9-0.6,3.2-0.6c0.1,0,0.3-0.1,0.4-0.1
			l0.5,0.3c-0.4,0.8-1.4,2.1-2,2.7l-0.7-0.3c0.6-0.5,1.3-1.4,1.6-1.9c-0.2,0-1.5,0.3-2.8,0.6c0.4,1.3,0.8,3,1,3.4
			c0.1,0.2,0.2,0.5,0.2,0.6l-0.8,0.2c0-0.2-0.1-0.4-0.1-0.7c-0.1-0.4-0.6-2.1-0.9-3.4c-0.9,0.2-1.6,0.3-1.9,0.4l-0.2-0.7
			c0.3,0,0.5-0.1,0.8-0.1c0.1,0,0.6-0.1,1.1-0.2c-0.1-0.5-0.3-0.9-0.3-1.1c-0.1-0.2-0.1-0.4-0.2-0.6L685.9,236.9z"/>
		<path class="st10" d="M691.6,242c1.6-0.2,2.9-0.8,3.7-1.4c1.4-0.9,2.6-2.3,3.1-3.4l0.5,0.8c-0.6,1.2-1.7,2.4-3.1,3.3
			c-0.9,0.6-2.1,1.2-3.7,1.5L691.6,242z M692.4,235.8c0.7,0.4,1.9,1.4,2.4,1.9l-0.6,0.6c-0.5-0.5-1.6-1.5-2.3-2L692.4,235.8z"/>
		<path class="st10" d="M699.7,240.2c0.2-0.2,0.4-0.4,0.7-0.6c0.4-0.4,1.3-1.5,1.8-2.2c0.5-0.6,0.9-0.7,1.6-0.1
			c0.6,0.5,1.4,1.4,1.9,2c0.6,0.7,1.6,1.7,2.3,2.5l-0.6,0.7c-0.7-0.8-1.5-1.8-2.1-2.4c-0.5-0.6-1.4-1.5-1.8-1.9
			c-0.4-0.4-0.5-0.3-0.9,0.1c-0.5,0.6-1.2,1.6-1.7,2.1c-0.2,0.2-0.4,0.5-0.5,0.7L699.7,240.2z M705.3,237c0-0.6,0.5-1.1,1.1-1.1
			c0.6,0,1.1,0.5,1.1,1.1s-0.5,1.1-1.1,1.1C705.9,238.1,705.3,237.6,705.3,237z M705.8,237c0,0.4,0.3,0.7,0.7,0.7
			c0.4,0,0.7-0.3,0.7-0.7c0-0.4-0.3-0.7-0.7-0.7C706.1,236.3,705.8,236.6,705.8,237z"/>
		<path class="st10" d="M709.5,238.6c0.3,0,0.8,0,1.3,0h5.1c0.5,0,0.8,0,1,0v0.9c-0.2,0-0.6,0-1,0h-5.1c-0.5,0-1,0-1.3,0V238.6z"/>
		<path class="st10" d="M718.2,242c1.6-0.2,2.9-0.8,3.7-1.4c1.4-0.9,2.6-2.3,3.1-3.4l0.4,0.8c-0.6,1.2-1.7,2.4-3.1,3.3
			c-0.9,0.6-2.1,1.2-3.7,1.5L718.2,242z M719,235.8c0.7,0.4,1.9,1.4,2.4,1.9l-0.6,0.6c-0.5-0.5-1.6-1.5-2.3-2L719,235.8z"/>
	</g>
</g>
<g transform="translate(-0.5 -0.5)" class="st2">
	<g class="st2">
		<path class="st10" d="M667.3,345.4C667.3,345.5,667.3,345.5,667.3,345.4l-0.6,0c0,0-0.1,0,0-0.1l2.1-7.7c0,0,0,0,0.1,0h0.6
			c0,0,0.1,0,0,0.1L667.3,345.4z"/>
		<path class="st10" d="M676.5,342.7c-1.1,0.2-2.1,0.3-2.5,0.4c-0.4,0.1-0.6,0.1-0.8,0.2l-0.2-0.8c0.2,0,0.6,0,0.8-0.1
			c0.5-0.1,1.5-0.2,2.6-0.4c-0.1-0.6-0.3-1.3-0.4-1.9c-0.9,0.1-1.7,0.3-2.1,0.3c-0.3,0-0.5,0.1-0.8,0.2l-0.2-0.8
			c0.2,0,0.5,0,0.8-0.1c0.4,0,1.2-0.2,2.1-0.3c-0.1-0.5-0.2-0.9-0.2-1c0-0.2-0.1-0.4-0.2-0.6l0.8-0.2c0,0.2,0.1,0.4,0.1,0.6
			c0,0.1,0.1,0.5,0.2,1c0.9-0.1,1.8-0.3,2.2-0.4c0.3,0,0.5-0.1,0.7-0.2l0.2,0.8c-0.1,0-0.4,0.1-0.7,0.1c-0.4,0.1-1.3,0.2-2.2,0.3
			c0.1,0.6,0.3,1.2,0.4,1.9c0.9-0.2,1.8-0.3,2.3-0.4c0.4-0.1,0.6-0.1,0.8-0.2l0.1,0.8c-0.2,0-0.5,0.1-0.8,0.1
			c-0.5,0.1-1.4,0.2-2.3,0.4c0.2,0.9,0.3,1.7,0.4,1.9c0.1,0.3,0.1,0.6,0.2,0.9l-0.9,0.2c0-0.3-0.1-0.6-0.1-0.9
			C676.9,344.4,676.7,343.6,676.5,342.7z"/>
		<path class="st10" d="M683.9,339.3c0,0.2,0.1,0.4,0.1,0.6c0.1,0.2,0.2,0.6,0.3,1.1c1.3-0.3,2.9-0.6,3.2-0.6c0.1,0,0.3-0.1,0.4-0.1
			l0.5,0.3c-0.4,0.8-1.4,2.1-2,2.7l-0.7-0.3c0.6-0.5,1.3-1.4,1.6-1.9c-0.2,0-1.5,0.3-2.8,0.6c0.4,1.3,0.8,3,1,3.4
			c0.1,0.2,0.2,0.5,0.2,0.6l-0.8,0.2c0-0.2-0.1-0.4-0.1-0.7c-0.1-0.4-0.6-2.1-0.9-3.4c-0.9,0.2-1.6,0.3-1.9,0.4l-0.2-0.7
			c0.3,0,0.5-0.1,0.8-0.1c0.1,0,0.6-0.1,1.1-0.2c-0.1-0.5-0.3-0.9-0.3-1.1c-0.1-0.2-0.1-0.4-0.2-0.6L683.9,339.3z"/>
		<path class="st10" d="M689.6,344.4c1.6-0.2,2.9-0.8,3.7-1.4c1.4-0.9,2.6-2.3,3.1-3.4l0.4,0.8c-0.6,1.2-1.7,2.4-3.1,3.3
			c-0.9,0.6-2.1,1.2-3.7,1.5L689.6,344.4z M690.4,338.2c0.7,0.4,1.9,1.4,2.4,1.9l-0.6,0.6c-0.5-0.5-1.6-1.5-2.3-2L690.4,338.2z"/>
		<path class="st10" d="M697.7,342.6c0.2-0.2,0.4-0.4,0.7-0.6c0.4-0.4,1.3-1.5,1.8-2.2c0.5-0.6,0.9-0.7,1.6-0.1
			c0.6,0.5,1.4,1.4,1.9,2c0.6,0.7,1.6,1.7,2.3,2.5l-0.6,0.7c-0.7-0.8-1.5-1.8-2.1-2.4c-0.5-0.6-1.4-1.5-1.8-1.9
			c-0.4-0.4-0.5-0.3-0.9,0.1c-0.5,0.6-1.2,1.6-1.7,2.1c-0.2,0.2-0.4,0.5-0.5,0.7L697.7,342.6z M703.3,339.4c0-0.6,0.5-1.1,1.1-1.1
			c0.6,0,1.1,0.5,1.1,1.1s-0.5,1.1-1.1,1.1C703.9,340.6,703.3,340,703.3,339.4z M703.8,339.4c0,0.4,0.3,0.7,0.7,0.7
			c0.4,0,0.7-0.3,0.7-0.7c0-0.4-0.3-0.7-0.7-0.7C704.1,338.7,703.8,339,703.8,339.4z"/>
		<path class="st10" d="M707.5,341c0.3,0,0.8,0,1.3,0h5.1c0.5,0,0.8,0,1,0v0.9c-0.2,0-0.6,0-1,0h-5.1c-0.5,0-1,0-1.3,0V341z"/>
		<path class="st10" d="M716.2,344.4c1.6-0.2,2.9-0.8,3.7-1.4c1.4-0.9,2.6-2.3,3.1-3.4l0.5,0.8c-0.6,1.2-1.7,2.4-3.1,3.3
			c-0.9,0.6-2.1,1.2-3.7,1.5L716.2,344.4z M717,338.2c0.7,0.4,1.9,1.4,2.4,1.9l-0.6,0.6c-0.5-0.5-1.6-1.5-2.3-2L717,338.2z"/>
	</g>
</g>
<g transform="translate(-0.5 -0.5)" class="st2">
	<g class="st2">
		<path class="st10" d="M710.1,385C710,385,710,385,710.1,385l-0.6,0c0,0-0.1,0,0-0.1l2.1-7.7c0,0,0,0,0.1,0h0.6c0,0,0.1,0,0,0.1
			L710.1,385z"/>
		<path class="st10" d="M720.2,377.2h0.9c0,0.3-0.1,0.5-0.1,0.8c0,0.2,0,0.5,0,0.9h1.5c0.2,0,0.6,0,0.8-0.1v0.8c-0.2,0-0.5,0-0.8,0
			h-1.5c0,1.4,0.1,3.3,0.1,4.4c0,0.5-0.3,0.8-0.9,0.8c-0.5,0-1,0-1.5-0.1l-0.1-0.8c0.4,0.1,1,0.1,1.3,0.1c0.3,0,0.3-0.1,0.3-0.4
			c0-0.8,0-2.1,0-3.4c-0.8,1.1-2.4,2.6-4.1,3.5l-0.5-0.6c1.9-0.9,3.6-2.5,4.3-3.6H717c-0.3,0-0.6,0-0.9,0v-0.8
			c0.3,0,0.6,0.1,0.9,0.1h3.4c0-0.4,0-0.7,0-0.9C720.3,377.7,720.3,377.4,720.2,377.2z"/>
		<path class="st10" d="M731.1,378.3c-0.1,0.1-0.1,0.3-0.1,0.5c-0.2,1-0.7,2.5-1.4,3.5c-0.9,1.1-2,2-3.7,2.5l-0.6-0.7
			c1.8-0.5,2.9-1.3,3.7-2.3c0.7-0.9,1.1-2.2,1.2-3.1h-4.8c-0.4,0-0.7,0-0.9,0V378c0.3,0,0.6,0.1,0.9,0.1h4.7c0.1,0,0.3,0,0.5,0
			L731.1,378.3z"/>
		<path class="st10" d="M738.8,379.8c-0.1,0.1-0.1,0.2-0.2,0.3c-0.3,0.4-1.1,1.6-1.9,2.2l-0.6-0.4c0.7-0.4,1.3-1.2,1.6-1.7l-4.5,0
			c-0.3,0-0.6,0-0.9,0v-0.8c0.3,0,0.6,0.1,0.9,0.1h4.6c0.1,0,0.4,0,0.5,0L738.8,379.8z M735.6,380.8c0,2-0.2,3.4-2.2,4.5l-0.7-0.5
			c0.2-0.1,0.4-0.2,0.6-0.3c1.3-0.9,1.4-1.9,1.4-3.1c0-0.2,0-0.4-0.1-0.6H735.6z"/>
		<path class="st10" d="M740,380.5c0.3,0,0.8,0,1.3,0h5.1c0.5,0,0.8,0,1,0v0.9c-0.2,0-0.6,0-1,0h-5.1c-0.5,0-1,0-1.3,0V380.5z"/>
		<path class="st10" d="M752.1,385.7l1.4,0c0,0,0,0,0,0.1v0.5c0,0,0,0.1,0,0.1h-2c0,0-0.1,0-0.1-0.1v-9.5c0-0.1,0-0.1,0.1-0.1h2
			c0,0,0,0,0,0.1v0.5c0,0,0,0.1,0,0.1l-1.4,0V385.7z"/>
		<path class="st10" d="M759.1,384.4c0,0.1,0,0.1-0.1,0.1c-0.3,0.1-0.8,0.2-1.4,0.2c-1.7,0-3.5-1-3.5-3.6c0-2.1,1.5-3.6,3.7-3.6
			c0.7,0,1.1,0.1,1.3,0.2c0,0,0,0,0,0.1v0.6c0,0.1,0,0.1-0.1,0c-0.3-0.2-0.8-0.2-1.4-0.2c-1.7,0-2.8,1.1-2.8,2.8
			c0,2.3,1.7,2.9,2.8,2.9c0.5,0,0.9,0,1.3-0.2c0,0,0.1,0,0.1,0V384.4z"/>
		<path class="st10" d="M761.1,384.5C761.1,384.6,761.1,384.6,761.1,384.5l-0.8,0.1c0,0-0.1,0-0.1-0.1v-6.8c0-0.1,0-0.1,0.1-0.1h3.8
			c0.1,0,0.1,0,0.1,0.1l0.1,0.6c0,0,0,0.1-0.1,0.1h-3.1v2.4h2.8c0,0,0.1,0,0.1,0.1v0.6c0,0,0,0.1-0.1,0.1h-2.8V384.5z"/>
		<path class="st10" d="M766.6,377.3l-1.4,0c0,0,0,0,0-0.1v-0.5c0,0,0-0.1,0-0.1h2c0,0,0.1,0,0.1,0.1v9.5c0,0.1,0,0.1-0.1,0.1h-2
			c0,0,0,0,0-0.1v-0.5c0,0,0-0.1,0-0.1l1.4,0V377.3z"/>
	</g>
</g>
<g transform="translate(-0.5 -0.5)" class="st2">
	<g class="st2">
		<path class="st10" d="M712.3,448.4C712.3,448.4,712.3,448.5,712.3,448.4l-0.6,0c0,0-0.1,0,0-0.1l2.1-7.7c0,0,0,0,0.1,0h0.6
			c0,0,0.1,0,0,0.1L712.3,448.4z"/>
		<path class="st10" d="M725.7,441.7c-0.1,0.1-0.2,0.2-0.3,0.3c-0.4,0.6-1.3,1.8-2.3,2.6l-0.6-0.5c0.9-0.5,1.7-1.5,2.1-2.1h-5.3
			c-0.3,0-0.7,0-1.1,0.1v-0.9c0.3,0,0.7,0.1,1.1,0.1h5.4c0.2,0,0.5,0,0.7-0.1L725.7,441.7z M722,442.9c0,2.5-0.2,4.3-2.6,5.4
			l-0.7-0.6c0.3-0.1,0.6-0.2,0.8-0.4c1.5-0.9,1.7-2.2,1.7-3.8c0-0.2,0-0.4,0-0.7H722z"/>
		<path class="st10" d="M728.7,446.8V444c-0.9,0.2-1.8,0.4-2.2,0.4l-0.1-0.8c0.4-0.1,1.3-0.2,2.3-0.4v-1.6c0-0.3,0-0.6-0.1-0.9h0.9
			c0,0.3-0.1,0.6-0.1,0.9v1.5c1.6-0.3,3.2-0.6,3.6-0.7c0.2,0,0.4-0.1,0.5-0.2l0.6,0.4c-0.1,0.1-0.2,0.3-0.2,0.4
			c-0.4,0.8-1.2,1.9-1.9,2.7l-0.7-0.4c0.7-0.6,1.4-1.7,1.7-2.2c-0.2,0-1.9,0.4-3.5,0.7v2.8c0,0.6,0.2,0.9,1.4,0.9
			c1.1,0,2-0.1,2.9-0.3l0,0.8c-0.8,0.1-1.8,0.2-2.9,0.2C729,448.2,728.7,447.7,728.7,446.8z"/>
		<path class="st10" d="M736.1,443.1c0.2,0.4,0.7,1.6,0.9,2.1l-0.7,0.3c-0.1-0.5-0.6-1.8-0.8-2.1L736.1,443.1z M741.7,443.2
			c-0.1,0.2-0.1,0.3-0.1,0.5c-0.3,1-0.7,2-1.3,2.9c-0.9,1.1-2,1.8-3.1,2.2l-0.6-0.6c1.1-0.3,2.3-1,3-2c0.7-0.8,1.2-2,1.3-3.2
			L741.7,443.2z M738.3,442.6c0.2,0.4,0.6,1.6,0.7,2l-0.7,0.2c-0.1-0.4-0.5-1.6-0.7-2L738.3,442.6z"/>
		<path class="st10" d="M743.9,448.3c0-0.3,0.1-0.8,0.1-1.1v-5.5c0-0.3,0-0.7-0.1-1h0.9c0,0.3-0.1,0.7-0.1,1v1.5c1.2,0.4,3,1,4,1.5
			l-0.3,0.8c-1-0.6-2.6-1.2-3.7-1.5c0,1.4,0,2.8,0,3.1c0,0.3,0,0.8,0.1,1.1H743.9z"/>
	</g>
</g>
<g transform="translate(-0.5 -0.5)" class="st2">
	<g class="st2">
		<path class="st10" d="M754.9,424.2C754.8,424.2,754.8,424.2,754.9,424.2l-0.6,0c0,0-0.1,0,0-0.1l2.1-7.7c0,0,0,0,0.1,0h0.6
			c0,0,0.1,0,0,0.1L754.9,424.2z"/>
		<path class="st10" d="M765,416.4h0.9c0,0.3-0.1,0.5-0.1,0.8c0,0.2,0,0.5,0,0.9h1.5c0.2,0,0.6,0,0.8-0.1v0.8c-0.2,0-0.5,0-0.8,0
			h-1.5c0,1.4,0.1,3.3,0.1,4.4c0,0.5-0.3,0.8-0.9,0.8c-0.5,0-1,0-1.5-0.1l-0.1-0.8c0.5,0.1,1,0.1,1.3,0.1c0.3,0,0.3-0.1,0.3-0.4
			c0-0.8,0-2.1,0-3.4c-0.8,1.1-2.4,2.6-4.1,3.5l-0.5-0.6c1.9-0.9,3.6-2.5,4.3-3.6h-3.1c-0.3,0-0.6,0-0.9,0v-0.8
			c0.3,0,0.6,0.1,0.9,0.1h3.4c0-0.4,0-0.7,0-0.9C765.1,416.9,765.1,416.6,765,416.4z"/>
		<path class="st10" d="M775.9,417.5c-0.1,0.1-0.1,0.3-0.1,0.5c-0.2,1-0.7,2.5-1.4,3.5c-0.9,1.1-2,2-3.7,2.5l-0.6-0.7
			c1.8-0.5,2.9-1.3,3.7-2.3c0.7-0.9,1.1-2.2,1.2-3.1h-4.8c-0.4,0-0.7,0-0.9,0v-0.8c0.3,0,0.6,0.1,0.9,0.1h4.7c0.1,0,0.3,0,0.5,0
			L775.9,417.5z"/>
		<path class="st10" d="M783.6,419c-0.1,0.1-0.1,0.2-0.2,0.3c-0.3,0.4-1.1,1.6-1.9,2.2l-0.6-0.4c0.7-0.4,1.3-1.2,1.6-1.7l-4.5,0
			c-0.3,0-0.6,0-0.9,0v-0.8c0.3,0,0.6,0.1,0.9,0.1h4.6c0.1,0,0.4,0,0.5,0L783.6,419z M780.4,420c0,2-0.2,3.4-2.2,4.5l-0.7-0.5
			c0.2-0.1,0.4-0.2,0.6-0.3c1.3-0.9,1.4-1.9,1.4-3.1c0-0.2,0-0.4-0.1-0.6H780.4z"/>
		<path class="st10" d="M784.8,419.7c0.3,0,0.8,0,1.3,0h5.1c0.5,0,0.8,0,1,0v0.9c-0.2,0-0.6,0-1,0h-5.1c-0.5,0-1,0-1.3,0V419.7z"/>
		<path class="st10" d="M794.8,421c0.4-1,0.8-2.4,0.9-3.5l0.8,0.2c-0.1,0.2-0.1,0.5-0.2,0.7c-0.1,0.6-0.5,2-0.9,2.9
			c-0.3,0.9-0.9,1.8-1.4,2.6l-0.8-0.3C794,422.7,794.5,421.7,794.8,421z M799.4,420.6c-0.4-1-0.9-2.3-1.4-3l0.8-0.3
			c0.4,0.7,1,2,1.4,3c0.4,0.9,0.9,2.4,1.1,3.2l-0.8,0.3C800.2,422.9,799.8,421.6,799.4,420.6z M799.9,416.5c0.2,0.3,0.6,0.9,0.8,1.3
			l-0.5,0.2c-0.2-0.4-0.5-0.9-0.8-1.3L799.9,416.5z M801,416.1c0.3,0.3,0.6,0.9,0.8,1.3l-0.5,0.2c-0.2-0.4-0.5-0.9-0.8-1.3
			L801,416.1z"/>
		<path class="st10" d="M803.3,416.7h0.9c0,0.2,0,0.5,0,0.7v3.1c0,0.2,0,0.5,0,0.7h-0.9c0-0.1,0-0.4,0-0.7v-3.1
			C803.4,417.2,803.3,416.9,803.3,416.7z M807.6,416.7h0.9c0,0.2,0,0.5,0,0.8v1.5c0,2.2-0.3,3-1,3.8c-0.6,0.7-1.5,1.1-2.2,1.4
			l-0.6-0.6c0.9-0.2,1.7-0.6,2.2-1.2c0.7-0.8,0.8-1.5,0.8-3.3v-1.5C807.7,417.2,807.7,416.9,807.6,416.7z"/>
		<path class="st10" d="M810.8,417.5c0.2,0,0.6,0.1,0.8,0.1h5.2c0.3,0,0.6,0,0.8-0.1v0.8c-0.2,0-0.5,0-0.8,0h-2.2v4.3h2.8
			c0.3,0,0.5,0,0.8-0.1v0.9c-0.3,0-0.6,0-0.8,0H811c-0.3,0-0.5,0-0.8,0v-0.9c0.3,0,0.6,0.1,0.8,0.1h2.6v-4.3h-2.1
			c-0.2,0-0.6,0-0.8,0V417.5z"/>
		<path class="st10" d="M819.5,419.7c0.3,0,0.8,0,1.3,0h5.1c0.5,0,0.8,0,1,0v0.9c-0.2,0-0.6,0-1,0h-5.1c-0.5,0-1,0-1.3,0V419.7z"/>
		<path class="st10" d="M828.9,418.7c0.6,0.3,1.6,1,2.1,1.3l-0.4,0.7c-0.5-0.3-1.5-1-2-1.3L828.9,418.7z M829,423.3
			c1-0.2,2.2-0.6,3.1-1.1c1.6-0.9,2.8-2.1,3.6-3.4l0.4,0.8c-0.8,1.3-2.1,2.5-3.6,3.4c-0.9,0.5-2.2,1-3.1,1.2L829,423.3z
			 M830.4,416.6c0.6,0.3,1.6,1,2,1.3l-0.4,0.6c-0.5-0.3-1.5-1-2-1.3L830.4,416.6z"/>
		<path class="st10" d="M837.2,418.6c0.2,0,0.7,0,1,0h3.6c0.2,0,0.5,0,0.6,0c0,0.1,0,0.3,0,0.5v4.7c0,0.2,0,0.4,0,0.5h-0.7
			c0-0.1,0-0.2,0-0.4h-3.8c-0.3,0-0.6,0-0.8,0v-0.8c0.2,0,0.5,0,0.8,0h3.8v-1.7h-3.4c-0.3,0-0.7,0-0.8,0v-0.7c0.2,0,0.5,0,0.8,0h3.4
			v-1.6h-3.5c-0.2,0-0.8,0-1,0V418.6z"/>
		<path class="st10" d="M844.1,423.2c1.6-0.2,2.9-0.8,3.7-1.4c1.4-0.9,2.6-2.3,3.1-3.4l0.4,0.8c-0.6,1.2-1.7,2.4-3.1,3.3
			c-0.9,0.6-2.1,1.2-3.7,1.5L844.1,423.2z M844.9,416.9c0.7,0.4,1.9,1.4,2.4,1.9l-0.6,0.6c-0.5-0.5-1.6-1.5-2.3-2L844.9,416.9z"/>
	</g>
</g>
<g transform="translate(-0.5 -0.5)" class="st2">
	<g class="st2">
		<path class="st10" d="M713.7,283.2C713.7,283.2,713.7,283.2,713.7,283.2l-0.6,0c0,0-0.1,0,0-0.1l2.1-7.7c0,0,0,0,0.1,0h0.6
			c0,0,0.1,0,0,0.1L713.7,283.2z"/>
		<path class="st10" d="M727.1,276.4c-0.1,0.1-0.2,0.2-0.3,0.3c-0.4,0.6-1.3,1.8-2.3,2.6l-0.6-0.5c0.9-0.5,1.7-1.5,2.1-2.1h-5.3
			c-0.3,0-0.7,0-1.1,0.1V276c0.3,0,0.7,0.1,1.1,0.1h5.4c0.2,0,0.5,0,0.7-0.1L727.1,276.4z M723.4,277.7c0,2.5-0.2,4.3-2.6,5.4
			l-0.7-0.6c0.3-0.1,0.6-0.2,0.8-0.4c1.5-0.9,1.7-2.2,1.7-3.8c0-0.2,0-0.4,0-0.7H723.4z"/>
		<path class="st10" d="M730,281.6v-2.8c-0.9,0.2-1.8,0.4-2.2,0.4l-0.1-0.8c0.4-0.1,1.3-0.2,2.3-0.4v-1.6c0-0.3,0-0.6-0.1-0.9h0.9
			c0,0.3-0.1,0.6-0.1,0.9v1.5c1.6-0.3,3.2-0.6,3.6-0.7c0.2,0,0.4-0.1,0.5-0.2l0.6,0.4c-0.1,0.1-0.2,0.3-0.2,0.4
			c-0.4,0.8-1.2,1.9-1.9,2.7l-0.7-0.4c0.7-0.6,1.4-1.7,1.7-2.2c-0.2,0-1.9,0.4-3.5,0.7v2.8c0,0.6,0.2,0.9,1.4,0.9
			c1.1,0,2-0.1,2.9-0.3l0,0.8c-0.8,0.1-1.8,0.2-2.9,0.2C730.4,282.9,730,282.5,730,281.6z"/>
		<path class="st10" d="M737.5,277.8c0.2,0.4,0.7,1.6,0.9,2.1l-0.7,0.3c-0.1-0.5-0.6-1.8-0.8-2.1L737.5,277.8z M743.1,277.9
			c-0.1,0.2-0.1,0.3-0.1,0.5c-0.3,1-0.7,2-1.3,2.9c-0.9,1.1-2,1.8-3.1,2.2l-0.6-0.6c1.1-0.3,2.3-1,3-2c0.7-0.8,1.2-2,1.3-3.2
			L743.1,277.9z M739.7,277.4c0.2,0.4,0.6,1.6,0.7,2l-0.7,0.2c-0.1-0.4-0.5-1.6-0.7-2L739.7,277.4z"/>
		<path class="st10" d="M745.2,283.1c0-0.3,0.1-0.8,0.1-1.1v-5.5c0-0.3,0-0.7-0.1-1h0.9c0,0.3-0.1,0.7-0.1,1v1.5c1.2,0.4,3,1,4,1.5
			l-0.3,0.8c-1-0.6-2.6-1.2-3.7-1.5c0,1.4,0,2.8,0,3.1c0,0.3,0,0.8,0.1,1.1H745.2z"/>
		<path class="st10" d="M751.9,280.9c1.6,0.2,4.3,0.9,5.6,1.4l-0.3,0.7c-1.2-0.5-4-1.2-5.5-1.4L751.9,280.9z M752.4,278.2
			c1.3,0.2,3.6,0.7,4.7,1.1l-0.3,0.7c-1.1-0.4-3.4-0.9-4.7-1.1L752.4,278.2z M752.8,275.7c1.2,0.1,3.7,0.7,4.9,1.1l-0.3,0.7
			c-1.1-0.4-3.6-0.9-4.9-1.1L752.8,275.7z"/>
		<path class="st10" d="M759.8,277.8c0.2,0.4,0.7,1.6,0.9,2.1l-0.7,0.3c-0.1-0.5-0.6-1.8-0.8-2.1L759.8,277.8z M765.4,277.9
			c-0.1,0.2-0.1,0.3-0.1,0.5c-0.3,1-0.7,2-1.3,2.9c-0.9,1.1-2,1.8-3.1,2.2l-0.6-0.6c1.1-0.3,2.3-1,3-2c0.7-0.8,1.2-2,1.3-3.2
			L765.4,277.9z M762,277.4c0.2,0.4,0.6,1.6,0.7,2l-0.7,0.2c-0.1-0.4-0.5-1.6-0.7-2L762,277.4z"/>
		<path class="st10" d="M773.8,276.9c-0.1,0.1-0.2,0.3-0.2,0.5c-0.3,0.9-0.8,2.2-1.7,3.2c-0.9,1-2,1.9-3.7,2.5l-0.7-0.6
			c1.7-0.5,2.9-1.4,3.7-2.4c0.7-0.9,1.3-2.1,1.5-2.9h-3.2c-0.6,0.8-1.4,1.6-2.4,2.3l-0.6-0.5c1.6-1,2.5-2.3,2.9-3.2
			c0.1-0.2,0.2-0.5,0.3-0.7l0.9,0.3c-0.2,0.2-0.3,0.6-0.4,0.7c-0.1,0.1-0.1,0.3-0.2,0.4h2.5c0.3,0,0.5,0,0.6-0.1L773.8,276.9z"/>
		<path class="st10" d="M781,276.5c-0.1,0.1-0.2,0.3-0.2,0.4c-0.3,0.8-0.9,1.9-1.6,2.7c1,0.8,2.1,2.1,2.7,2.8l-0.7,0.6
			c-0.6-0.8-1.6-1.9-2.6-2.8c-1,1.1-2.3,2.1-3.7,2.7l-0.6-0.6c1.5-0.6,2.9-1.7,3.9-2.8c0.6-0.7,1.3-1.8,1.6-2.6h-3.7
			c-0.3,0-0.8,0-0.9,0v-0.9c0.1,0,0.7,0.1,0.9,0.1h3.6c0.3,0,0.6,0,0.7-0.1L781,276.5z"/>
	</g>
</g>
<path class="st7" d="M961.3,108v294.2c0,0-2.3,14.1,9.1,14.1h15.7"/>
<path class="st7" d="M961.3,148.8c0,0-3,15.8,9,15.8h15.8"/>
<polyline class="st7" points="1025.3,182.6 1025.3,373.8 1037.6,373.8 "/>
<line class="st7" x1="1025.3" y1="214.5" x2="1038.3" y2="214.5"/>
<polyline class="st7" points="1067.4,223.6 1067.4,258.9 1081.5,258.9 "/>
<polyline class="st7" points="1111.1,267.8 1111.1,303.3 1125.2,303.3 "/>
<polyline class="st7" points="1144.9,312.9 1144.9,346.9 1159.9,346.9 "/>
<g>
	<g>
		<path class="st0" d="M1025.3,194.1c-2.6,0-4.7-2.1-4.7-4.7c0-2.6,2.1-4.7,4.7-4.7s4.7,2.1,4.7,4.7
			C1030,192,1027.9,194.1,1025.3,194.1z"/>
		<path class="st4" d="M1025.3,185.1c2.3,0,4.2,1.9,4.2,4.2c0,2.3-1.9,4.2-4.2,4.2c-2.3,0-4.2-1.9-4.2-4.2
			C1021,187,1022.9,185.1,1025.3,185.1 M1025.3,184.1c-2.9,0-5.2,2.3-5.2,5.2s2.3,5.2,5.2,5.2c2.9,0,5.2-2.3,5.2-5.2
			S1028.2,184.1,1025.3,184.1L1025.3,184.1z"/>
	</g>
	<g transform="translate(-0.5 -0.5)">
		<g class="st2">
			<path d="M1027.2,190.4h-2.9v-1.1h2.9V190.4z"/>
		</g>
	</g>
</g>
<g>
	<g>
		<path class="st0" d="M1067.4,237.9c-2.6,0-4.7-2.1-4.7-4.7c0-2.6,2.1-4.7,4.7-4.7s4.7,2.1,4.7,4.7
			C1072.1,235.8,1070,237.9,1067.4,237.9z"/>
		<path class="st4" d="M1067.4,228.9c2.3,0,4.2,1.9,4.2,4.2c0,2.3-1.9,4.2-4.2,4.2c-2.3,0-4.2-1.9-4.2-4.2
			C1063.1,230.8,1065,228.9,1067.4,228.9 M1067.4,227.9c-2.9,0-5.2,2.3-5.2,5.2s2.3,5.2,5.2,5.2c2.9,0,5.2-2.3,5.2-5.2
			S1070.2,227.9,1067.4,227.9L1067.4,227.9z"/>
	</g>
	<g transform="translate(-0.5 -0.5)">
		<g class="st2">
			<path d="M1069.3,234.2h-2.9v-1.1h2.9V234.2z"/>
		</g>
	</g>
</g>
<g>
	<g>
		<path class="st0" d="M1110.6,281.9c-2.6,0-4.7-2.1-4.7-4.7c0-2.6,2.1-4.7,4.7-4.7s4.7,2.1,4.7,4.7
			C1115.4,279.8,1113.3,281.9,1110.6,281.9z"/>
		<path class="st4" d="M1110.6,273c2.3,0,4.2,1.9,4.2,4.2c0,2.3-1.9,4.2-4.2,4.2c-2.3,0-4.2-1.9-4.2-4.2
			C1106.4,274.9,1108.3,273,1110.6,273 M1110.6,272c-2.9,0-5.2,2.3-5.2,5.2s2.3,5.2,5.2,5.2c2.9,0,5.2-2.3,5.2-5.2
			S1113.5,272,1110.6,272L1110.6,272z"/>
	</g>
	<g transform="translate(-0.5 -0.5)">
		<g class="st2">
			<path d="M1112.6,278.2h-2.9v-1.1h2.9V278.2z"/>
		</g>
	</g>
</g>
<g>
	<g>
		<path class="st0" d="M1144.9,326.1c-2.6,0-4.7-2.1-4.7-4.7c0-2.6,2.1-4.7,4.7-4.7s4.7,2.1,4.7,4.7
			C1149.7,324,1147.5,326.1,1144.9,326.1z"/>
		<path class="st4" d="M1144.9,317.1c2.3,0,4.2,1.9,4.2,4.2c0,2.3-1.9,4.2-4.2,4.2c-2.3,0-4.2-1.9-4.2-4.2
			C1140.7,319,1142.6,317.1,1144.9,317.1 M1144.9,316.1c-2.9,0-5.2,2.3-5.2,5.2s2.3,5.2,5.2,5.2s5.2-2.3,5.2-5.2
			S1147.8,316.1,1144.9,316.1L1144.9,316.1z"/>
	</g>
	<g transform="translate(-0.5 -0.5)">
		<g class="st2">
			<path d="M1146.9,322.4h-2.9v-1.1h2.9V322.4z"/>
		</g>
	</g>
</g>
<g class="st2">
	<rect x="873.7" y="53.7" class="st3" width="175.1" height="60"/>
	<path class="st4" d="M1046.3,56.2v55H876.2v-55H1046.3 M1051.3,51.2h-5H876.2h-5v5v55v5h5h170.1h5v-5v-55V51.2L1051.3,51.2z"/>
</g>
<g class="st2">
	<rect x="1034.9" y="203.6" class="st8" width="64.9" height="21.7"/>
	<path class="st3" d="M1098.5,204.9v19.2h-62.4v-19.2H1098.5 M1101,202.4h-2.5h-62.4h-2.5v2.5v19.2v2.5h2.5h62.4h2.5v-2.5v-19.2
		V202.4L1101,202.4z"/>
</g>
<g class="st2">
	<rect x="1078.2" y="248" class="st8" width="64.9" height="21.7"/>
	<path class="st3" d="M1141.8,249.3v19.2h-62.4v-19.2H1141.8 M1144.3,246.8h-2.5h-62.4h-2.5v2.5v19.2v2.5h2.5h62.4h2.5v-2.5v-19.2
		V246.8L1144.3,246.8z"/>
</g>
<g class="st2">
	<rect x="1121.3" y="292.4" class="st8" width="47.3" height="21.7"/>
	<path class="st3" d="M1167.3,293.7v19.2h-44.8v-19.2H1167.3 M1169.8,291.2h-2.5h-44.8h-2.5v2.5v19.2v2.5h2.5h44.8h2.5v-2.5v-19.2
		V291.2L1169.8,291.2z"/>
</g>
<g class="st2">
	<rect x="1155.3" y="336" class="st8" width="60.9" height="21.7"/>
	<path class="st3" d="M1214.9,337.3v19.2h-58.4v-19.2H1214.9 M1217.4,334.8h-2.5h-58.4h-2.5v2.5v19.2v2.5h2.5h58.4h2.5v-2.5v-19.2
		V334.8L1217.4,334.8z"/>
</g>
<g class="st2">
	<rect x="1035.5" y="363" class="st8" width="64.8" height="21.7"/>
	<path class="st3" d="M1099,364.2v19.2h-62.3v-19.2H1099 M1101.5,361.7h-2.5h-62.3h-2.5v2.5v19.2v2.5h2.5h62.3h2.5v-2.5v-19.2V361.7
		L1101.5,361.7z"/>
</g>
<g>
	<rect x="982.1" y="398.2" class="st0" width="115" height="36"/>
	<path class="st4" d="M1096.1,399.2v34h-113v-34H1096.1 M1098.1,397.2h-2h-113h-2v2v34v2h2h113h2v-2v-34V397.2L1098.1,397.2z"/>
</g>
<g transform="translate(-0.5 -0.5)" class="st2">
	<g class="st2">
		<path class="st9" d="M1012.4,421.7C1012.3,421.7,1012.3,421.8,1012.4,421.7l-0.9,0.1c-0.1,0-0.1,0-0.1-0.1l3-10.7
			c0-0.1,0-0.1,0.1-0.1h0.8c0.1,0,0.1,0,0.1,0.1L1012.4,421.7z"/>
		<path class="st9" d="M1021.5,415v7.1h-0.9v-11.3h4.7v4.2H1021.5z M1021.5,411.6v1h2.8v-1H1021.5z M1024.3,414.3v-1.1h-2.8v1.1
			H1024.3z M1031.2,421c0,0.5-0.1,0.8-0.5,1c-0.3,0.2-0.9,0.2-1.7,0.2c0-0.2-0.1-0.6-0.3-0.9c-0.1,0.1-0.1,0.2-0.1,0.2
			c-1.3-0.3-2.2-1-2.8-2c-0.4,0.7-1.2,1.5-2.9,2c-0.1-0.2-0.4-0.5-0.6-0.6c1.8-0.5,2.5-1.2,2.8-1.9h-2.7v-0.7h2.8v-0.1v-0.9h-2.6
			v-0.7h1.4c-0.1-0.3-0.3-0.8-0.6-1.1l0.8-0.2c0.3,0.4,0.6,0.9,0.7,1.3h1.7c0.2-0.4,0.5-0.9,0.6-1.3l0.9,0.3c-0.2,0.4-0.5,0.7-0.7,1
			h1.5v0.7h-2.8v0.9v0.1h3.1v0.7h-2.9c0.5,0.9,1.5,1.6,2.8,1.8c-0.1,0.1-0.3,0.3-0.4,0.4c0.5,0,1.1,0,1.2,0c0.2,0,0.2-0.1,0.2-0.2
			v-6h-3.9v-4.2h4.8V421z M1027.3,411.6v1h3v-1H1027.3z M1030.2,414.3v-1.1h-3v1.1H1030.2z"/>
		<path class="st9" d="M1044,413.6c-0.3,2.1-0.8,3.8-1.6,5.2c0.7,1.1,1.5,2,2.5,2.5c-0.2,0.2-0.5,0.6-0.7,0.8
			c-1-0.6-1.8-1.4-2.4-2.5c-0.8,1-1.7,1.8-3,2.5c-0.1-0.2-0.2-0.5-0.4-0.7l-0.3,0.3c-0.4-0.3-0.9-0.7-1.5-1
			c-0.8,0.6-1.8,1.1-3.2,1.4c-0.1-0.3-0.3-0.6-0.4-0.8c1.2-0.2,2.1-0.5,2.8-1c-0.4-0.2-0.8-0.4-1.3-0.6l-0.2,0.4l-0.8-0.3
			c0.3-0.5,0.6-1.2,1-1.8h-1.5v-0.8h1.9c0.2-0.4,0.4-0.8,0.5-1.1l0.3,0.1v-1.8c-0.7,0.8-1.5,1.5-2.3,1.9c-0.1-0.2-0.3-0.6-0.5-0.7
			c0.9-0.4,1.9-1.2,2.5-2.1h-2.4v-0.8h2.7v-2.4h0.9v2.4h2.6v0.8h-2.6v0.1c0.6,0.3,2,1.2,2.3,1.5l-0.5,0.7c-0.3-0.3-1.2-0.9-1.8-1.4
			v1.9h-0.6l0.2,0.1c-0.1,0.3-0.3,0.6-0.4,0.9h3.5v0.8h-1.1c-0.2,0.9-0.5,1.6-0.9,2.2c0.6,0.3,1.1,0.7,1.5,0.9
			c1.1-0.6,2-1.4,2.6-2.4c-0.5-1.1-0.9-2.3-1.2-3.6c-0.3,0.6-0.6,1.2-0.9,1.6c-0.1-0.2-0.6-0.5-0.8-0.7c1.1-1.4,1.8-3.5,2.1-5.8
			l1,0.1c-0.1,0.8-0.3,1.5-0.5,2.2h3.8v0.9H1044z M1034.2,412.6c-0.1-0.5-0.5-1.2-0.8-1.7l0.7-0.3c0.4,0.5,0.7,1.2,0.8,1.7
			L1034.2,412.6z M1035.3,418c-0.2,0.4-0.4,0.7-0.5,1.1c0.5,0.2,1,0.4,1.5,0.7c0.4-0.5,0.7-1,0.8-1.7H1035.3z M1038.9,410.9
			c-0.4,0.6-0.8,1.2-1.2,1.7l-0.7-0.3c0.3-0.5,0.8-1.2,1-1.7L1038.9,410.9z M1040.7,413.6c0.2,1.5,0.6,2.9,1.1,4.1
			c0.6-1.2,0.9-2.5,1.1-4.1L1040.7,413.6L1040.7,413.6z"/>
		<path class="st9" d="M1050,421.2c-0.1,0-0.1,0-0.1-0.1v-9.4c0-0.1,0-0.1,0.1-0.1h1.3c0.1,0,0.1,0,0.1,0.1c1.3,2.2,4.2,7,4.8,8.2h0
			c0-0.4,0-1,0-2.2v-5.9c0-0.1,0-0.1,0.1-0.1h0.9c0.1,0,0.1,0,0.1,0.1v9.4c0,0.1,0,0.1-0.1,0.1h-1.2c-0.1,0-0.1,0-0.2-0.1
			c-0.6-1.2-4.4-7.4-4.9-8.4h0c0,0.5,0.1,1.3,0.1,2.5v5.9c0,0.1,0,0.1-0.1,0.1H1050z"/>
		<path class="st9" d="M1062.8,413.7C1062.9,413.7,1062.9,413.7,1062.8,413.7l0.1,3.3h3c0.1,0,0.1,0,0.1,0.1v0.7
			c0,0.1,0,0.1-0.1,0.1h-3v3.2c0,0.1,0,0.1-0.1,0.1h-0.7c-0.1,0-0.1,0-0.1-0.1v-3.2h-3.1c-0.1,0-0.1,0-0.1-0.1V417
			c0-0.1,0.1-0.1,0.1-0.1h3.1v-3.2c0,0,0-0.1,0.1-0.1H1062.8z"/>
		<path class="st9" d="M1068.7,421.2C1068.6,421.2,1068.6,421.1,1068.7,421.2l-0.1-8.1c-0.5,0.3-1.3,0.6-1.8,0.7
			c-0.1,0-0.1,0-0.1-0.1v-0.8c0-0.1,0-0.1,0.1-0.1c0.7-0.2,1.5-0.6,2-0.9c0.1-0.1,0.1-0.1,0.2-0.1h0.6c0.1,0,0.1,0,0.1,0.1v9.2
			c0,0.1,0,0.1-0.1,0.1H1068.7z"/>
	</g>
</g>
<g>
	<rect x="981.5" y="146.9" class="st0" width="87.6" height="35.4"/>
	<path class="st4" d="M1068.1,147.9v33.4h-85.6v-33.4H1068.1 M1070.1,145.9h-2h-85.6h-2v2v33.4v2h2h85.6h2v-2v-33.4V145.9
		L1070.1,145.9z"/>
</g>
<g transform="translate(-0.5 -0.5)" class="st2">
	<g class="st2">
		<path class="st9" d="M1014.9,163.7v7.1h-0.9v-11.3h4.7v4.2H1014.9z M1014.9,160.2v1h2.8v-1H1014.9z M1017.8,163v-1.1h-2.8v1.1
			H1017.8z M1024.7,169.7c0,0.5-0.1,0.8-0.5,1c-0.3,0.2-0.9,0.2-1.7,0.2c0-0.2-0.1-0.6-0.3-0.9c-0.1,0.1-0.1,0.2-0.1,0.2
			c-1.3-0.3-2.2-1-2.8-2c-0.4,0.7-1.2,1.5-2.9,2c-0.1-0.2-0.4-0.5-0.6-0.6c1.8-0.5,2.5-1.2,2.8-1.9h-2.7v-0.7h2.8v-0.1v-0.9h-2.6
			v-0.7h1.4c-0.1-0.3-0.3-0.8-0.6-1.1l0.8-0.2c0.3,0.4,0.6,0.9,0.7,1.3h1.7c0.2-0.4,0.5-0.9,0.6-1.3l0.9,0.3c-0.2,0.4-0.5,0.7-0.7,1
			h1.5v0.7h-2.8v0.9v0.1h3.1v0.7h-2.9c0.5,0.9,1.5,1.6,2.8,1.8c-0.1,0.1-0.3,0.3-0.4,0.4c0.5,0,1.1,0,1.2,0c0.2,0,0.2-0.1,0.2-0.2
			v-6h-3.9v-4.2h4.8V169.7z M1020.8,160.2v1h3v-1H1020.8z M1023.7,163v-1.1h-3v1.1H1023.7z"/>
		<path class="st9" d="M1037.4,162.2c-0.3,2.1-0.8,3.8-1.6,5.2c0.7,1.1,1.5,2,2.5,2.5c-0.2,0.2-0.5,0.6-0.7,0.8
			c-1-0.6-1.8-1.4-2.4-2.5c-0.8,1-1.7,1.8-3,2.5c-0.1-0.2-0.2-0.5-0.4-0.7l-0.3,0.3c-0.4-0.3-0.9-0.7-1.5-1
			c-0.8,0.6-1.8,1.1-3.2,1.4c-0.1-0.3-0.3-0.6-0.4-0.8c1.2-0.2,2.1-0.5,2.8-1c-0.4-0.2-0.8-0.4-1.3-0.6l-0.2,0.4l-0.8-0.3
			c0.3-0.5,0.6-1.2,1-1.8h-1.5v-0.8h1.9c0.2-0.4,0.4-0.8,0.5-1.1l0.3,0.1V163c-0.7,0.8-1.5,1.5-2.3,1.9c-0.1-0.2-0.3-0.6-0.5-0.7
			c0.9-0.4,1.9-1.2,2.5-2.1h-2.4v-0.8h2.7V159h0.9v2.4h2.6v0.8h-2.6v0.1c0.6,0.3,2,1.2,2.3,1.5l-0.5,0.7c-0.3-0.3-1.2-0.9-1.8-1.4
			v1.9h-0.6l0.2,0.1c-0.1,0.3-0.3,0.6-0.4,0.9h3.5v0.8h-1.1c-0.2,0.9-0.5,1.6-0.9,2.2c0.6,0.3,1.1,0.6,1.5,0.9
			c1.1-0.6,2-1.4,2.6-2.4c-0.5-1.1-0.9-2.3-1.2-3.6c-0.3,0.6-0.6,1.2-0.9,1.6c-0.1-0.2-0.6-0.5-0.8-0.7c1.1-1.4,1.8-3.5,2.1-5.8
			l1,0.1c-0.1,0.8-0.3,1.5-0.5,2.2h3.8v0.9H1037.4z M1027.7,161.3c-0.1-0.5-0.5-1.2-0.8-1.7l0.7-0.3c0.4,0.5,0.7,1.2,0.8,1.7
			L1027.7,161.3z M1028.8,166.7c-0.2,0.4-0.4,0.7-0.5,1.1c0.5,0.2,1,0.4,1.5,0.7c0.4-0.5,0.7-1,0.8-1.7H1028.8z M1032.3,159.6
			c-0.4,0.6-0.8,1.2-1.2,1.7l-0.7-0.3c0.3-0.5,0.8-1.2,1-1.7L1032.3,159.6z M1034.2,162.3c0.2,1.5,0.6,2.9,1.1,4.1
			c0.6-1.2,0.9-2.5,1.1-4.1L1034.2,162.3L1034.2,162.3z"/>
	</g>
</g>
<g transform="translate(-0.5 -0.5)">
	<g class="st2">
		<path d="M909.4,90.1h-2.7l4.4-12.2h2.9l4.3,12.2h-2.8l-0.8-2.5h-4.5L909.4,90.1z M911,85.5h3.1l-1.5-4.8h0L911,85.5z"/>
		<path d="M929,80.1h-6.5v2.6h6v2.2h-6V88h6.8v2.2H920V77.9h9V80.1z"/>
		<path d="M943.1,90.1h-2.4V79.9h0l-2.3,10.2h-2.5l-2.2-10.2h0v10.2h-2.4V77.9h3.7l2.2,9.6h0l2.2-9.6h3.7V90.1z"/>
		<path d="M952,90.1h-2.7l4.4-12.2h2.9l4.3,12.2h-2.8l-0.8-2.5h-4.5L952,90.1z M953.5,85.5h3.1l-1.5-4.8h0L953.5,85.5z"/>
		<path d="M964.4,86.4c0,0.7,0.4,2,2.6,2c1.2,0,2.6-0.3,2.6-1.6c0-1-0.9-1.2-2.2-1.5l-1.3-0.3c-2-0.5-3.9-0.9-3.9-3.6
			c0-1.4,0.7-3.8,4.7-3.8c3.7,0,4.8,2.5,4.8,4h-2.5c-0.1-0.5-0.3-1.8-2.5-1.8c-1,0-2.1,0.4-2.1,1.5c0,1,0.8,1.2,1.3,1.3l3,0.7
			c1.7,0.4,3.2,1.1,3.2,3.3c0,3.7-3.7,4-4.8,4c-4.5,0-5.2-2.6-5.2-4.1H964.4z"/>
		<path d="M975.8,86.4c0,0.7,0.4,2,2.6,2c1.2,0,2.6-0.3,2.6-1.6c0-1-0.9-1.2-2.2-1.5l-1.3-0.3c-2-0.5-3.9-0.9-3.9-3.6
			c0-1.4,0.7-3.8,4.7-3.8c3.7,0,4.8,2.5,4.8,4h-2.5c-0.1-0.5-0.3-1.8-2.5-1.8c-1,0-2.1,0.4-2.1,1.5c0,1,0.8,1.2,1.3,1.3l3,0.7
			c1.7,0.4,3.2,1.1,3.2,3.3c0,3.7-3.7,4-4.8,4c-4.5,0-5.2-2.6-5.2-4.1H975.8z"/>
		<path d="M994.3,80.1h-6.5v2.6h6v2.2h-6V88h6.8v2.2h-9.3V77.9h9V80.1z"/>
		<path d="M1001.8,90.1h-2.6V80.1h-3.7v-2.2h9.9v2.2h-3.7V90.1z"/>
		<path d="M1008.9,86.4c0,0.7,0.4,2,2.6,2c1.2,0,2.6-0.3,2.6-1.6c0-1-0.9-1.2-2.2-1.5l-1.3-0.3c-2-0.5-3.9-0.9-3.9-3.6
			c0-1.4,0.7-3.8,4.7-3.8c3.7,0,4.8,2.5,4.8,4h-2.5c-0.1-0.5-0.3-1.8-2.5-1.8c-1,0-2.1,0.4-2.1,1.5c0,1,0.8,1.2,1.3,1.3l3,0.7
			c1.7,0.4,3.2,1.1,3.2,3.3c0,3.7-3.7,4-4.8,4c-4.5,0-5.2-2.6-5.2-4.1H1008.9z"/>
	</g>
</g>
<g transform="translate(-0.5 -0.5)" class="st2">
	<g class="st2">
		<path class="st10" d="M1049,218.2C1048.9,218.3,1048.9,218.3,1049,218.2l-0.6,0c0,0-0.1,0,0-0.1l2.1-7.7c0,0,0,0,0.1,0h0.6
			c0,0,0.1,0,0,0.1L1049,218.2z"/>
		<path class="st10" d="M1055.2,211.3c0.7,0,2.1,0,3.1-0.1c0.9-0.1,2-0.3,2.4-0.5l0.5,0.6c-0.2,0.1-0.4,0.1-0.5,0.1
			c-0.5,0.1-1.2,0.3-1.9,0.4v1.8h2.6c0.2,0,0.5,0,0.7,0v0.8c-0.2,0-0.5,0-0.7,0h-2.6c-0.1,1.8-0.8,3-2.4,3.9l-0.7-0.5
			c1.5-0.7,2.3-1.7,2.4-3.4h-2.8c-0.3,0-0.6,0-0.8,0v-0.8c0.2,0,0.5,0,0.8,0h2.8v-1.7c-0.9,0.1-2,0.1-2.7,0.1L1055.2,211.3z"/>
		<path class="st10" d="M1065.2,212.1c0,0.2,0.1,0.4,0.1,0.6c0.1,0.2,0.2,0.6,0.3,1.1c1.3-0.3,2.9-0.6,3.2-0.6
			c0.1,0,0.3-0.1,0.4-0.1l0.5,0.3c-0.4,0.8-1.4,2.1-2,2.7l-0.7-0.3c0.6-0.5,1.3-1.4,1.6-1.9c-0.2,0-1.5,0.3-2.8,0.6
			c0.4,1.3,0.8,3,1,3.4c0.1,0.2,0.2,0.5,0.2,0.6l-0.8,0.2c0-0.2-0.1-0.4-0.1-0.7c-0.1-0.4-0.6-2.1-0.9-3.4c-0.9,0.2-1.6,0.3-1.9,0.4
			l-0.2-0.7c0.3,0,0.5-0.1,0.8-0.1c0.1,0,0.6-0.1,1.1-0.2c-0.1-0.5-0.3-0.9-0.3-1.1c-0.1-0.2-0.1-0.4-0.2-0.6L1065.2,212.1z"/>
		<path class="st10" d="M1075.1,210.4c0,0.2-0.1,0.6-0.1,0.8v0.6h1.5c0.2,0,0.4,0,0.6-0.1l0.5,0.5c-0.2,0.2-0.4,0.4-0.5,0.6
			c-0.5,0.6-1.3,1.3-2.1,1.9c0,0.8,0,1.9,0,2.5c0,0.3,0,0.7,0,1h-0.9c0-0.3,0.1-0.7,0.1-1c0-0.5,0-1.4,0-2c-0.9,0.5-1.9,0.9-3.2,1.3
			l-0.5-0.7c1.8-0.4,2.9-1,3.8-1.6c0.8-0.5,1.6-1.3,1.9-1.7h-3.9c-0.3,0-0.9,0-1.2,0v-0.8c0.3,0,0.8,0,1.1,0h1.8v-0.6
			c0-0.3,0-0.6,0-0.8H1075.1z M1078.1,216.6c-0.8-0.6-1.4-1-2.3-1.4l0.5-0.6c0.9,0.5,1.4,0.8,2.3,1.4L1078.1,216.6z"/>
		<path class="st10" d="M1079.2,217.6c0.8-0.6,1.3-1.4,1.6-2.3c0.3-0.9,0.3-2.7,0.3-3.8c0-0.3,0-0.5-0.1-0.7h0.9c0,0.1,0,0.4,0,0.7
			c0,1,0,3-0.3,4c-0.3,1-0.9,1.9-1.7,2.6L1079.2,217.6z M1084,218.1l-0.5-0.4c0-0.2,0.1-0.3,0.1-0.5v-5.6c0-0.4,0-0.6-0.1-0.7h0.9
			c0,0.1,0,0.3,0,0.7v5.4c0.9-0.4,2-1.2,2.7-2.3l0.4,0.6c-0.8,1.1-2.1,2.1-3.2,2.6C1084.2,217.9,1084.1,218,1084,218.1z"/>
	</g>
</g>
<g transform="translate(-0.5 -0.5)" class="st2">
	<g class="st2">
		<path class="st10" d="M1050.4,378C1050.4,378.1,1050.4,378.1,1050.4,378l-0.6,0c0,0-0.1,0,0-0.1l2.1-7.7c0,0,0,0,0.1,0h0.6
			c0,0,0.1,0,0,0.1L1050.4,378z"/>
		<path class="st10" d="M1056.7,371.1c0.7,0,2.1,0,3.1-0.1c0.9-0.1,2-0.3,2.4-0.5l0.5,0.6c-0.2,0.1-0.4,0.1-0.5,0.1
			c-0.5,0.1-1.2,0.3-1.9,0.4v1.8h2.6c0.2,0,0.5,0,0.7,0v0.8c-0.2,0-0.5,0-0.7,0h-2.6c-0.1,1.8-0.8,3-2.4,3.9l-0.7-0.5
			c1.5-0.7,2.3-1.7,2.4-3.4h-2.8c-0.3,0-0.6,0-0.8,0v-0.8c0.2,0,0.5,0,0.8,0h2.8v-1.7c-0.9,0.1-2,0.1-2.7,0.1L1056.7,371.1z"/>
		<path class="st10" d="M1066.7,371.9c0,0.2,0.1,0.4,0.1,0.6c0.1,0.2,0.2,0.6,0.3,1.1c1.3-0.3,2.9-0.6,3.2-0.6
			c0.1,0,0.3-0.1,0.4-0.1l0.5,0.3c-0.4,0.8-1.4,2.1-2,2.7l-0.7-0.3c0.6-0.5,1.3-1.4,1.6-1.9c-0.2,0-1.5,0.3-2.8,0.6
			c0.4,1.3,0.8,3,1,3.4c0.1,0.2,0.2,0.5,0.2,0.6l-0.8,0.2c0-0.2-0.1-0.4-0.1-0.7c-0.1-0.4-0.6-2.1-0.9-3.4c-0.9,0.2-1.6,0.3-1.9,0.4
			l-0.2-0.7c0.3,0,0.5-0.1,0.8-0.1c0.1,0,0.6-0.1,1.1-0.2c-0.1-0.5-0.3-0.9-0.3-1.1c-0.1-0.2-0.1-0.4-0.2-0.6L1066.7,371.9z"/>
		<path class="st10" d="M1076.6,370.1c0,0.2-0.1,0.6-0.1,0.8v0.6h1.5c0.2,0,0.4,0,0.6-0.1l0.5,0.5c-0.2,0.2-0.4,0.4-0.5,0.6
			c-0.5,0.6-1.3,1.3-2.1,1.9c0,0.8,0,1.9,0,2.5c0,0.3,0,0.7,0,1h-0.9c0-0.3,0.1-0.7,0.1-1c0-0.5,0-1.4,0-2c-0.9,0.5-1.9,0.9-3.2,1.3
			l-0.5-0.7c1.8-0.4,2.9-1,3.8-1.6c0.8-0.5,1.6-1.3,1.9-1.7h-3.9c-0.3,0-0.9,0-1.2,0v-0.8c0.3,0,0.8,0,1.1,0h1.8V371
			c0-0.3,0-0.6,0-0.8H1076.6z M1079.6,376.4c-0.8-0.6-1.4-1-2.3-1.4l0.5-0.6c0.9,0.5,1.4,0.8,2.3,1.4L1079.6,376.4z"/>
		<path class="st10" d="M1080.7,377.4c0.8-0.6,1.3-1.4,1.6-2.3c0.3-0.9,0.3-2.7,0.3-3.8c0-0.3,0-0.5-0.1-0.7h0.9c0,0.1,0,0.4,0,0.7
			c0,1,0,3-0.3,4c-0.3,1-0.9,1.9-1.7,2.6L1080.7,377.4z M1085.5,377.9l-0.5-0.4c0-0.2,0.1-0.3,0.1-0.5v-5.6c0-0.4,0-0.6-0.1-0.7h0.9
			c0,0.1,0,0.3,0,0.7v5.4c0.9-0.4,2-1.2,2.7-2.3l0.4,0.6c-0.8,1.1-2.1,2.1-3.2,2.6C1085.7,377.7,1085.6,377.8,1085.5,377.9z"/>
	</g>
</g>
<g transform="translate(-0.5 -0.5)" class="st2">
	<g class="st2">
		<path class="st10" d="M1099.8,263C1099.8,263,1099.8,263,1099.8,263l-0.6,0c0,0-0.1,0,0-0.1l2.1-7.7c0,0,0,0,0.1,0h0.6
			c0,0,0.1,0,0,0.1L1099.8,263z"/>
		<path class="st10" d="M1108.2,260.2c-0.9,0.5-2,1-2.8,1.3l-0.3-0.7c0.4-0.2,0.8-0.3,1.3-0.6v-2.9h-1.1v-0.7h1.1v-1.9h0.6v1.9h1
			v0.7h-1v2.6l1-0.4L1108.2,260.2z M1109.9,259.2c-0.1,0.2-0.3,0.5-0.4,0.7h4c0,0,0,0.2,0,0.3c-0.1,1.9-0.3,2.7-0.6,2.9
			c-0.1,0.2-0.3,0.2-0.5,0.2c-0.2,0-0.6,0-0.9,0c0-0.2-0.1-0.4-0.2-0.6c0.3,0,0.7,0,0.8,0c0.1,0,0.2,0,0.3-0.1
			c0.2-0.2,0.3-0.8,0.4-2.2h-0.7c-0.4,1.1-1.1,2.3-1.9,2.9c-0.1-0.1-0.3-0.3-0.5-0.4c0.8-0.5,1.4-1.5,1.8-2.5h-0.9
			c-0.5,1-1.4,2-2.3,2.5c-0.1-0.2-0.3-0.3-0.5-0.4c0.8-0.4,1.6-1.3,2.1-2.1h-0.9c-0.4,0.4-0.8,0.8-1.2,1.1c-0.1-0.1-0.3-0.3-0.5-0.4
			c0.7-0.4,1.4-1.1,1.9-1.9h-1.3v-0.6h5.9v0.6H1109.9z M1113.1,258h-4.3v-3h4.3V258z M1112.5,255.5h-3v0.7h3V255.5z M1112.5,256.8
			h-3v0.7h3V256.8z"/>
		<path class="st10" d="M1115.8,259.8c0,1.1-0.2,2.6-0.8,3.5c-0.1-0.1-0.4-0.3-0.5-0.4c0.6-1,0.7-2.4,0.7-3.5v-2.5h3.4v2.9H1115.8z
			 M1118.8,255.9h-4v-0.6h4V255.9z M1115.8,257.5v1.6h2.1v-1.6H1115.8z M1123.2,258.6h-1v4.7h-0.7v-4.7h-1.6c0,1.5-0.3,3.3-1.6,4.7
			c-0.1-0.2-0.3-0.4-0.5-0.5c1.3-1.4,1.4-3.2,1.4-4.7v-2.5l0.6,0.1c1-0.3,2-0.6,2.7-0.9l0.6,0.5c-0.8,0.4-2,0.8-3.1,1v1.5h3.3V258.6
			z"/>
	</g>
</g>
<g transform="translate(-0.5 -0.5)" class="st2">
	<g class="st2">
		<path class="st10" d="M1138.8,307.5C1138.8,307.5,1138.8,307.5,1138.8,307.5l-0.6,0c0,0-0.1,0,0-0.1l2.1-7.7c0,0,0,0,0.1,0h0.6
			c0,0,0.1,0,0,0.1L1138.8,307.5z"/>
		<path class="st10" d="M1152.7,305.6h-3.4v2.1h-0.7v-2.1h-4.3V305h1.5v-2.5h2.8V301h-2.3c-0.4,0.7-0.9,1.4-1.4,1.8
			c-0.1-0.1-0.4-0.3-0.6-0.4c0.9-0.8,1.7-2,2.1-3.2l0.7,0.2c-0.1,0.3-0.3,0.7-0.4,1h5.6v0.7h-3v1.4h2.7v0.7h-2.7v1.9h3.4V305.6z
			 M1148.6,305v-1.9h-2.1v1.9H1148.6z"/>
	</g>
</g>
<g transform="translate(-0.5 -0.5)" class="st2">
	<g class="st2">
		<path class="st10" d="M1179.6,351.6C1179.6,351.7,1179.6,351.7,1179.6,351.6l-0.6,0c0,0-0.1,0,0-0.1l2.1-7.7c0,0,0,0,0.1,0h0.6
			c0,0,0.1,0,0,0.1L1179.6,351.6z"/>
		<path class="st10" d="M1192.3,350.9c0,0.5-0.1,0.7-0.5,0.8c-0.4,0.1-1,0.1-2,0.1c0-0.2-0.2-0.5-0.3-0.7c0.8,0,1.5,0,1.8,0
			c0.2,0,0.3-0.1,0.3-0.3V349h-4.5c-0.2,1.1-0.7,2.1-1.6,2.9c-0.1-0.1-0.4-0.4-0.5-0.5c1.5-1.3,1.6-3.2,1.6-4.7v-2.9h5.7V350.9z
			 M1191.6,348.4v-1.6h-4.3c0,0.5,0,1-0.1,1.6H1191.6z M1187.3,344.6v1.6h4.3v-1.6H1187.3z"/>
	</g>
</g>
</svg>
